G04*
G04 #@! TF.GenerationSoftware,Altium Limited,Altium Designer,22.7.1 (60)*
G04*
G04 Layer_Physical_Order=2*
G04 Layer_Color=16711680*
%FSLAX44Y44*%
%MOMM*%
G71*
G04*
G04 #@! TF.SameCoordinates,29AA5E4F-6587-4ACD-81CD-572689CA6415*
G04*
G04*
G04 #@! TF.FilePolarity,Positive*
G04*
G01*
G75*
%ADD10C,0.2000*%
%ADD25C,1.5700*%
%ADD26R,1.5700X1.5700*%
%ADD27C,1.2000*%
%ADD28R,1.2000X1.2000*%
%ADD30C,0.3000*%
%ADD31R,1.5000X1.5000*%
%ADD32C,1.5000*%
%ADD33C,1.6000*%
%ADD34C,1.5240*%
%ADD35C,1.3500*%
%ADD36R,1.3500X1.3500*%
%ADD37C,0.5000*%
G36*
X535000Y503776D02*
X533900Y503141D01*
X533474Y503387D01*
X531185Y504000D01*
X528815D01*
X526526Y503387D01*
X525240Y502644D01*
X502442Y525442D01*
X501780Y525884D01*
X501000Y526039D01*
X197477D01*
X197222Y526992D01*
X196201Y528759D01*
X194758Y530202D01*
X192991Y531222D01*
X191020Y531750D01*
X188979D01*
X187008Y531222D01*
X185241Y530202D01*
X183798Y528759D01*
X182778Y526992D01*
X182250Y525021D01*
Y522980D01*
X182778Y521009D01*
X183271Y520155D01*
X160155Y497039D01*
X84171D01*
X83787Y498474D01*
X82602Y500526D01*
X80926Y502202D01*
X78874Y503387D01*
X76585Y504000D01*
X74215D01*
X71926Y503387D01*
X69874Y502202D01*
X68198Y500526D01*
X67014Y498474D01*
X66400Y496185D01*
Y493815D01*
X67014Y491526D01*
X68198Y489474D01*
X69874Y487798D01*
X71926Y486613D01*
X74215Y486000D01*
X76585D01*
X78874Y486613D01*
X80926Y487798D01*
X82602Y489474D01*
X83787Y491526D01*
X84171Y492961D01*
X161000D01*
X161780Y493116D01*
X162442Y493558D01*
X186155Y517271D01*
X187008Y516778D01*
X188979Y516250D01*
X191020D01*
X192991Y516778D01*
X194758Y517799D01*
X196201Y519242D01*
X197222Y521009D01*
X197477Y521961D01*
X500155D01*
X522356Y499760D01*
X521614Y498474D01*
X521000Y496185D01*
Y493815D01*
X521614Y491526D01*
X522798Y489474D01*
X524474Y487798D01*
X526526Y486613D01*
X528815Y486000D01*
X531185D01*
X533474Y486613D01*
X533900Y486859D01*
X535000Y486224D01*
Y403776D01*
X533900Y403141D01*
X533474Y403387D01*
X531185Y404000D01*
X528815D01*
X526526Y403387D01*
X524474Y402202D01*
X522798Y400526D01*
X521614Y398474D01*
X521000Y396185D01*
Y393815D01*
X521614Y391526D01*
X522798Y389474D01*
X524474Y387799D01*
X526526Y386614D01*
X528815Y386000D01*
X531185D01*
X533474Y386614D01*
X533900Y386860D01*
X535000Y386225D01*
Y303776D01*
X533900Y303141D01*
X533474Y303387D01*
X531185Y304000D01*
X528815D01*
X526526Y303387D01*
X524474Y302202D01*
X522798Y300526D01*
X521614Y298474D01*
X521000Y296185D01*
Y293815D01*
X521614Y291526D01*
X522798Y289474D01*
X524474Y287798D01*
X526526Y286613D01*
X528815Y286000D01*
X531185D01*
X533474Y286613D01*
X533900Y286859D01*
X535000Y286224D01*
Y193776D01*
X533900Y193141D01*
X533474Y193387D01*
X531185Y194000D01*
X528815D01*
X526526Y193387D01*
X524474Y192202D01*
X522798Y190526D01*
X521614Y188474D01*
X521000Y186185D01*
Y183815D01*
X521614Y181526D01*
X522798Y179474D01*
X524474Y177798D01*
X526526Y176614D01*
X528815Y176000D01*
X531185D01*
X533474Y176614D01*
X533900Y176859D01*
X535000Y176224D01*
Y93776D01*
X533900Y93140D01*
X533474Y93386D01*
X531185Y94000D01*
X528815D01*
X526526Y93386D01*
X524474Y92202D01*
X522798Y90526D01*
X521614Y88474D01*
X521000Y86185D01*
Y83815D01*
X521614Y81526D01*
X522798Y79474D01*
X524474Y77798D01*
X526526Y76613D01*
X528815Y76000D01*
X531185D01*
X533474Y76613D01*
X533900Y76859D01*
X535000Y76224D01*
Y40000D01*
X35000D01*
Y540000D01*
X535000D01*
Y503776D01*
D02*
G37*
%LPC*%
G36*
X505785Y504000D02*
X503415D01*
X501126Y503387D01*
X499074Y502202D01*
X497398Y500526D01*
X496213Y498474D01*
X495600Y496185D01*
Y493815D01*
X496213Y491526D01*
X497398Y489474D01*
X499074Y487798D01*
X501126Y486613D01*
X503415Y486000D01*
X505785D01*
X508074Y486613D01*
X510126Y487798D01*
X511802Y489474D01*
X512987Y491526D01*
X513600Y493815D01*
Y496185D01*
X512987Y498474D01*
X511802Y500526D01*
X510126Y502202D01*
X508074Y503387D01*
X505785Y504000D01*
D02*
G37*
G36*
X311270Y483501D02*
Y476270D01*
X318501D01*
X317958Y478296D01*
X316834Y480244D01*
X315244Y481834D01*
X313296Y482958D01*
X311270Y483501D01*
D02*
G37*
G36*
X308730D02*
X306704Y482958D01*
X304756Y481834D01*
X303166Y480244D01*
X302042Y478296D01*
X301499Y476270D01*
X308730D01*
Y483501D01*
D02*
G37*
G36*
X267000Y482000D02*
X253000D01*
Y468000D01*
X267000D01*
Y482000D01*
D02*
G37*
G36*
X318501Y473730D02*
X311270D01*
Y466499D01*
X313296Y467042D01*
X315244Y468166D01*
X316834Y469756D01*
X317958Y471704D01*
X318501Y473730D01*
D02*
G37*
G36*
X308730D02*
X301499D01*
X302042Y471704D01*
X302429Y471034D01*
X259944Y428549D01*
X198935D01*
X198657Y429586D01*
X197434Y431704D01*
X195704Y433434D01*
X193586Y434657D01*
X191270Y435277D01*
Y426000D01*
Y416722D01*
X193586Y417343D01*
X195704Y418566D01*
X197434Y420296D01*
X198657Y422414D01*
X198935Y423451D01*
X261000D01*
X261975Y423645D01*
X262802Y424198D01*
X306034Y467429D01*
X306704Y467042D01*
X308730Y466499D01*
Y473730D01*
D02*
G37*
G36*
X188730Y435277D02*
X186414Y434657D01*
X184296Y433434D01*
X182566Y431704D01*
X181343Y429586D01*
X180722Y427270D01*
X188730D01*
Y435277D01*
D02*
G37*
G36*
Y424730D02*
X180722D01*
X181343Y422414D01*
X182566Y420296D01*
X184296Y418566D01*
X186414Y417343D01*
X188730Y416722D01*
Y424730D01*
D02*
G37*
G36*
X51185Y504000D02*
X48815D01*
X46526Y503387D01*
X44474Y502202D01*
X42798Y500526D01*
X41613Y498474D01*
X41000Y496185D01*
Y493815D01*
X41613Y491526D01*
X42798Y489474D01*
X44474Y487798D01*
X46526Y486613D01*
X47961Y486229D01*
Y473178D01*
X48116Y472397D01*
X48558Y471736D01*
X179646Y340648D01*
X179646Y340648D01*
X180308Y340206D01*
X181088Y340051D01*
X330890D01*
X331670Y340206D01*
X332332Y340648D01*
X337506Y345822D01*
X338619Y345179D01*
X340781Y344600D01*
X343019D01*
X345181Y345179D01*
X347119Y346298D01*
X348702Y347881D01*
X349821Y349819D01*
X350400Y351981D01*
Y354219D01*
X349821Y356381D01*
X348702Y358319D01*
X347119Y359902D01*
X345181Y361021D01*
X343019Y361600D01*
X340781D01*
X338619Y361021D01*
X336681Y359902D01*
X335098Y358319D01*
X333979Y356381D01*
X333400Y354219D01*
Y351981D01*
X333979Y349819D01*
X334622Y348706D01*
X330045Y344129D01*
X272102D01*
X271762Y345399D01*
X273319Y346298D01*
X274902Y347881D01*
X276021Y349819D01*
X276600Y351981D01*
Y354219D01*
X276021Y356381D01*
X275642Y357037D01*
X306152Y387547D01*
X338160D01*
X338200Y387447D01*
X338370Y386277D01*
X336681Y385302D01*
X335098Y383719D01*
X333979Y381781D01*
X333400Y379619D01*
Y377381D01*
X333979Y375219D01*
X335098Y373281D01*
X336681Y371698D01*
X338619Y370579D01*
X340781Y370000D01*
X343019D01*
X345181Y370579D01*
X347119Y371698D01*
X348702Y373281D01*
X349821Y375219D01*
X350400Y377381D01*
Y379619D01*
X349821Y381781D01*
X348702Y383719D01*
X347119Y385302D01*
X345430Y386277D01*
X345600Y387447D01*
X345640Y387547D01*
X404296D01*
X405272Y387741D01*
X406099Y388294D01*
X414163Y396358D01*
X414819Y395979D01*
X416981Y395400D01*
X419219D01*
X421381Y395979D01*
X423319Y397098D01*
X424902Y398681D01*
X426021Y400619D01*
X426600Y402781D01*
Y405019D01*
X426021Y407181D01*
X424902Y409119D01*
X423319Y410702D01*
X421381Y411821D01*
X419219Y412400D01*
X416981D01*
X414819Y411821D01*
X412881Y410702D01*
X411298Y409119D01*
X410179Y407181D01*
X409600Y405019D01*
Y402781D01*
X410179Y400619D01*
X410558Y399963D01*
X403240Y392645D01*
X305096D01*
X304120Y392451D01*
X303293Y391898D01*
X272037Y360642D01*
X271381Y361021D01*
X269219Y361600D01*
X266981D01*
X264819Y361021D01*
X262881Y359902D01*
X261298Y358319D01*
X260179Y356381D01*
X259600Y354219D01*
Y351981D01*
X260179Y349819D01*
X261298Y347881D01*
X262881Y346298D01*
X264438Y345399D01*
X264097Y344129D01*
X201940D01*
Y351830D01*
X181860D01*
Y345861D01*
X180686Y345375D01*
X52039Y474023D01*
Y486229D01*
X53474Y486613D01*
X55526Y487798D01*
X57202Y489474D01*
X58387Y491526D01*
X59000Y493815D01*
Y496185D01*
X58387Y498474D01*
X57202Y500526D01*
X55526Y502202D01*
X53474Y503387D01*
X51185Y504000D01*
D02*
G37*
G36*
X73885Y404000D02*
X71515D01*
X69226Y403387D01*
X67174Y402202D01*
X65498Y400526D01*
X64314Y398474D01*
X63700Y396185D01*
Y393815D01*
X64314Y391526D01*
X65498Y389474D01*
X67174Y387799D01*
X69226Y386614D01*
X71515Y386000D01*
X73885D01*
X76174Y386614D01*
X78226Y387799D01*
X79902Y389474D01*
X81087Y391526D01*
X81700Y393815D01*
Y396185D01*
X81087Y398474D01*
X79902Y400526D01*
X78226Y402202D01*
X76174Y403387D01*
X73885Y404000D01*
D02*
G37*
G36*
X419422Y388540D02*
X419370D01*
Y379770D01*
X428140D01*
Y379822D01*
X427456Y382375D01*
X426134Y384665D01*
X424265Y386534D01*
X421975Y387856D01*
X419422Y388540D01*
D02*
G37*
G36*
X416830D02*
X416778D01*
X414225Y387856D01*
X411935Y386534D01*
X410066Y384665D01*
X408744Y382375D01*
X408060Y379822D01*
Y379770D01*
X416830D01*
Y388540D01*
D02*
G37*
G36*
X428140Y377230D02*
X419370D01*
Y368460D01*
X419422D01*
X421975Y369144D01*
X424265Y370466D01*
X426134Y372335D01*
X427456Y374625D01*
X428140Y377178D01*
Y377230D01*
D02*
G37*
G36*
X416830D02*
X408060D01*
Y377178D01*
X408744Y374625D01*
X410066Y372335D01*
X411935Y370466D01*
X414225Y369144D01*
X416778Y368460D01*
X416830D01*
Y377230D01*
D02*
G37*
G36*
X201940Y363140D02*
X193170D01*
Y354370D01*
X201940D01*
Y363140D01*
D02*
G37*
G36*
X190630D02*
X181860D01*
Y354370D01*
X190630D01*
Y363140D01*
D02*
G37*
G36*
X419219Y361600D02*
X416981D01*
X414819Y361021D01*
X412881Y359902D01*
X411298Y358319D01*
X410179Y356381D01*
X409600Y354219D01*
Y351981D01*
X410179Y349819D01*
X411298Y347881D01*
X412881Y346298D01*
X414819Y345179D01*
X416981Y344600D01*
X419219D01*
X421381Y345179D01*
X423319Y346298D01*
X424902Y347881D01*
X426021Y349819D01*
X426600Y351981D01*
Y354219D01*
X426021Y356381D01*
X424902Y358319D01*
X423319Y359902D01*
X421381Y361021D01*
X419219Y361600D01*
D02*
G37*
G36*
X419422Y337740D02*
X419370D01*
Y328970D01*
X428140D01*
Y329022D01*
X427456Y331575D01*
X426134Y333865D01*
X424265Y335734D01*
X421975Y337056D01*
X419422Y337740D01*
D02*
G37*
G36*
X416830D02*
X416778D01*
X414225Y337056D01*
X411935Y335734D01*
X410066Y333865D01*
X408744Y331575D01*
X408060Y329022D01*
Y328970D01*
X416830D01*
Y337740D01*
D02*
G37*
G36*
X48485Y404000D02*
X46115D01*
X43826Y403387D01*
X41774Y402202D01*
X40098Y400526D01*
X38914Y398474D01*
X38300Y396185D01*
Y393815D01*
X38914Y391526D01*
X40098Y389474D01*
X41774Y387799D01*
X43826Y386614D01*
X46115Y386000D01*
X48485D01*
X50774Y386614D01*
X52060Y387356D01*
X77940Y361476D01*
X78602Y361034D01*
X79382Y360879D01*
X79383Y360879D01*
X118521D01*
X164152Y315248D01*
X164152Y315248D01*
X164814Y314806D01*
X165594Y314651D01*
X165594Y314651D01*
X281926D01*
X282706Y314806D01*
X283368Y315248D01*
X293781Y325661D01*
X333647D01*
X333979Y324419D01*
X335098Y322481D01*
X336681Y320898D01*
X338619Y319779D01*
X340781Y319200D01*
X343019D01*
X345181Y319779D01*
X347119Y320898D01*
X348702Y322481D01*
X349821Y324419D01*
X350400Y326581D01*
Y328819D01*
X349821Y330981D01*
X348702Y332919D01*
X347119Y334502D01*
X345181Y335621D01*
X343019Y336200D01*
X340781D01*
X338619Y335621D01*
X336681Y334502D01*
X335098Y332919D01*
X333979Y330981D01*
X333647Y329739D01*
X292936D01*
X292155Y329584D01*
X291494Y329142D01*
X281081Y318729D01*
X272102D01*
X271762Y319999D01*
X273319Y320898D01*
X274902Y322481D01*
X276021Y324419D01*
X276600Y326581D01*
Y328819D01*
X276021Y330981D01*
X274902Y332919D01*
X273319Y334502D01*
X271381Y335621D01*
X269219Y336200D01*
X266981D01*
X264819Y335621D01*
X262881Y334502D01*
X261298Y332919D01*
X260179Y330981D01*
X259846Y329739D01*
X200153D01*
X199820Y330981D01*
X198701Y332919D01*
X197119Y334502D01*
X195181Y335621D01*
X193019Y336200D01*
X190781D01*
X188619Y335621D01*
X186681Y334502D01*
X185098Y332919D01*
X183979Y330981D01*
X183400Y328819D01*
Y326581D01*
X183979Y324419D01*
X185098Y322481D01*
X186681Y320898D01*
X188238Y319999D01*
X187897Y318729D01*
X166439D01*
X120808Y364360D01*
X120146Y364802D01*
X119366Y364957D01*
X80227D01*
X54944Y390240D01*
X55687Y391526D01*
X56300Y393815D01*
Y396185D01*
X55687Y398474D01*
X54502Y400526D01*
X52826Y402202D01*
X50774Y403387D01*
X48485Y404000D01*
D02*
G37*
G36*
X428140Y326430D02*
X419370D01*
Y317660D01*
X419422D01*
X421975Y318344D01*
X424265Y319666D01*
X426134Y321535D01*
X427456Y323825D01*
X428140Y326378D01*
Y326430D01*
D02*
G37*
G36*
X416830D02*
X408060D01*
Y326378D01*
X408744Y323825D01*
X410066Y321535D01*
X411935Y319666D01*
X414225Y318344D01*
X416778Y317660D01*
X416830D01*
Y326430D01*
D02*
G37*
G36*
X419219Y310800D02*
X416981D01*
X414819Y310221D01*
X412881Y309102D01*
X411298Y307519D01*
X410179Y305581D01*
X409600Y303419D01*
Y301181D01*
X410179Y299019D01*
X411298Y297081D01*
X412881Y295498D01*
X414819Y294379D01*
X416981Y293800D01*
X419219D01*
X421381Y294379D01*
X423319Y295498D01*
X424902Y297081D01*
X426021Y299019D01*
X426600Y301181D01*
Y303419D01*
X426021Y305581D01*
X424902Y307519D01*
X423319Y309102D01*
X421381Y310221D01*
X419219Y310800D01*
D02*
G37*
G36*
X269219D02*
X266981D01*
X264819Y310221D01*
X262881Y309102D01*
X261298Y307519D01*
X260179Y305581D01*
X259600Y303419D01*
Y301181D01*
X260179Y299019D01*
X261298Y297081D01*
X262881Y295498D01*
X264819Y294379D01*
X266981Y293800D01*
X269219D01*
X271381Y294379D01*
X273319Y295498D01*
X274902Y297081D01*
X276021Y299019D01*
X276600Y301181D01*
Y303419D01*
X276021Y305581D01*
X274902Y307519D01*
X273319Y309102D01*
X271381Y310221D01*
X269219Y310800D01*
D02*
G37*
G36*
X193019D02*
X190781D01*
X188619Y310221D01*
X186681Y309102D01*
X185098Y307519D01*
X183979Y305581D01*
X183400Y303419D01*
Y301181D01*
X183979Y299019D01*
X185098Y297081D01*
X186681Y295498D01*
X188619Y294379D01*
X190781Y293800D01*
X193019D01*
X195181Y294379D01*
X197119Y295498D01*
X198701Y297081D01*
X199820Y299019D01*
X200400Y301181D01*
Y303419D01*
X199820Y305581D01*
X198701Y307519D01*
X197119Y309102D01*
X195181Y310221D01*
X193019Y310800D01*
D02*
G37*
G36*
X76585Y294000D02*
X74215D01*
X71926Y293387D01*
X69874Y292202D01*
X68198Y290526D01*
X67014Y288474D01*
X66400Y286185D01*
Y283815D01*
X67014Y281526D01*
X68198Y279474D01*
X69874Y277798D01*
X71926Y276613D01*
X74215Y276000D01*
X76585D01*
X78874Y276613D01*
X80926Y277798D01*
X82602Y279474D01*
X83787Y281526D01*
X84400Y283815D01*
Y286185D01*
X83787Y288474D01*
X82602Y290526D01*
X80926Y292202D01*
X78874Y293387D01*
X76585Y294000D01*
D02*
G37*
G36*
X419219Y285400D02*
X416981D01*
X414819Y284821D01*
X412881Y283702D01*
X411298Y282119D01*
X410179Y280181D01*
X409600Y278019D01*
Y275781D01*
X410179Y273619D01*
X411298Y271681D01*
X412881Y270098D01*
X414819Y268979D01*
X416981Y268400D01*
X419219D01*
X421381Y268979D01*
X423319Y270098D01*
X424902Y271681D01*
X426021Y273619D01*
X426600Y275781D01*
Y278019D01*
X426021Y280181D01*
X424902Y282119D01*
X423319Y283702D01*
X421381Y284821D01*
X419219Y285400D01*
D02*
G37*
G36*
X193019D02*
X190781D01*
X188619Y284821D01*
X186681Y283702D01*
X185098Y282119D01*
X183979Y280181D01*
X183400Y278019D01*
Y275781D01*
X183979Y273619D01*
X185098Y271681D01*
X186681Y270098D01*
X188619Y268979D01*
X190781Y268400D01*
X193019D01*
X195181Y268979D01*
X197119Y270098D01*
X198701Y271681D01*
X199820Y273619D01*
X200400Y275781D01*
Y278019D01*
X199820Y280181D01*
X198701Y282119D01*
X197119Y283702D01*
X195181Y284821D01*
X193019Y285400D01*
D02*
G37*
G36*
X121060Y326095D02*
X89056D01*
X88276Y325940D01*
X87614Y325498D01*
X87614Y325498D01*
X54760Y292644D01*
X53474Y293387D01*
X51185Y294000D01*
X48815D01*
X46526Y293387D01*
X44474Y292202D01*
X42798Y290526D01*
X41613Y288474D01*
X41000Y286185D01*
Y283815D01*
X41613Y281526D01*
X42798Y279474D01*
X44474Y277798D01*
X46526Y276613D01*
X48815Y276000D01*
X51185D01*
X53474Y276613D01*
X55526Y277798D01*
X57202Y279474D01*
X58387Y281526D01*
X59000Y283815D01*
Y286185D01*
X58387Y288474D01*
X57644Y289760D01*
X89901Y322017D01*
X120216D01*
X154162Y288070D01*
X154162Y288070D01*
X154824Y287628D01*
X155604Y287473D01*
X307112D01*
X307892Y287628D01*
X308554Y288070D01*
X331744Y311261D01*
X337881D01*
X338221Y309991D01*
X336681Y309102D01*
X335098Y307519D01*
X333979Y305581D01*
X333400Y303419D01*
Y301181D01*
X333979Y299019D01*
X335098Y297081D01*
X336681Y295498D01*
X338619Y294379D01*
X340781Y293800D01*
X343019D01*
X345181Y294379D01*
X347119Y295498D01*
X348702Y297081D01*
X349821Y299019D01*
X350400Y301181D01*
Y303419D01*
X349821Y305581D01*
X348702Y307519D01*
X347119Y309102D01*
X345579Y309991D01*
X345919Y311261D01*
X355455D01*
X410822Y255894D01*
X410179Y254781D01*
X409600Y252619D01*
Y250381D01*
X410179Y248219D01*
X411298Y246281D01*
X412881Y244698D01*
X414819Y243579D01*
X416981Y243000D01*
X419219D01*
X421381Y243579D01*
X423319Y244698D01*
X424902Y246281D01*
X426021Y248219D01*
X426600Y250381D01*
Y252619D01*
X426021Y254781D01*
X424902Y256719D01*
X423319Y258302D01*
X421381Y259421D01*
X419219Y260000D01*
X416981D01*
X414819Y259421D01*
X413706Y258778D01*
X357742Y314742D01*
X357080Y315184D01*
X356300Y315339D01*
X330900D01*
X330900Y315339D01*
X330119Y315184D01*
X329458Y314742D01*
X329458Y314742D01*
X306267Y291551D01*
X156449D01*
X122502Y325498D01*
X121840Y325940D01*
X121060Y326095D01*
D02*
G37*
G36*
X416096Y444909D02*
X380870D01*
X380090Y444754D01*
X379428Y444312D01*
X379428Y444312D01*
X347516Y412400D01*
X333400D01*
Y395400D01*
X350400D01*
Y409516D01*
X381715Y440831D01*
X415251D01*
X502561Y353521D01*
Y303771D01*
X501126Y303387D01*
X499074Y302202D01*
X497398Y300526D01*
X496213Y298474D01*
X495600Y296185D01*
Y293815D01*
X496213Y291526D01*
X497398Y289474D01*
X499074Y287798D01*
X501126Y286613D01*
X503415Y286000D01*
X505785D01*
X508074Y286613D01*
X510126Y287798D01*
X511802Y289474D01*
X512805Y291211D01*
X514075Y290870D01*
Y275625D01*
X479201Y240751D01*
X398595D01*
X350004Y289342D01*
X349342Y289784D01*
X348562Y289939D01*
X335178D01*
X334398Y289784D01*
X333736Y289342D01*
X333736Y289342D01*
X329252Y284858D01*
X328810Y284196D01*
X328655Y283416D01*
Y262706D01*
X328810Y261926D01*
X329252Y261264D01*
X334622Y255894D01*
X333979Y254781D01*
X333400Y252619D01*
Y250381D01*
X333979Y248219D01*
X335098Y246281D01*
X336681Y244698D01*
X338619Y243579D01*
X340781Y243000D01*
X343019D01*
X345181Y243579D01*
X347119Y244698D01*
X348702Y246281D01*
X349821Y248219D01*
X350400Y250381D01*
Y252619D01*
X349821Y254781D01*
X348702Y256719D01*
X347119Y258302D01*
X345181Y259421D01*
X343019Y260000D01*
X340781D01*
X338619Y259421D01*
X337506Y258778D01*
X332733Y263551D01*
Y273362D01*
X333979Y273619D01*
X335098Y271681D01*
X336681Y270098D01*
X338619Y268979D01*
X340781Y268400D01*
X343019D01*
X345181Y268979D01*
X346294Y269622D01*
X432358Y183558D01*
X433019Y183116D01*
X433800Y182961D01*
X495829D01*
X496213Y181526D01*
X497398Y179474D01*
X499074Y177798D01*
X501126Y176614D01*
X503415Y176000D01*
X505785D01*
X508074Y176614D01*
X510126Y177798D01*
X511802Y179474D01*
X512805Y181211D01*
X514075Y180871D01*
Y122209D01*
X447197Y55331D01*
X82553D01*
X57644Y80240D01*
X58387Y81526D01*
X59000Y83815D01*
Y86185D01*
X58387Y88474D01*
X57202Y90526D01*
X55526Y92202D01*
X53474Y93386D01*
X51185Y94000D01*
X48815D01*
X46526Y93386D01*
X44474Y92202D01*
X42798Y90526D01*
X41613Y88474D01*
X41000Y86185D01*
Y83815D01*
X41613Y81526D01*
X42798Y79474D01*
X44474Y77798D01*
X46526Y76613D01*
X48815Y76000D01*
X51185D01*
X53474Y76613D01*
X54760Y77356D01*
X80266Y51850D01*
X80266Y51850D01*
X80928Y51408D01*
X81708Y51253D01*
X448042D01*
X448822Y51408D01*
X449484Y51850D01*
X517556Y119922D01*
X517556Y119922D01*
X517998Y120584D01*
X518153Y121364D01*
Y202136D01*
X518153Y202136D01*
X517998Y202916D01*
X517556Y203578D01*
X493592Y227542D01*
X492930Y227984D01*
X492150Y228139D01*
X426353D01*
X426021Y229381D01*
X424902Y231319D01*
X423319Y232902D01*
X421381Y234021D01*
X419219Y234600D01*
X416981D01*
X414819Y234021D01*
X412881Y232902D01*
X411298Y231319D01*
X410179Y229381D01*
X409600Y227219D01*
Y224981D01*
X410179Y222819D01*
X411298Y220881D01*
X412881Y219298D01*
X414819Y218179D01*
X416981Y217600D01*
X419219D01*
X421381Y218179D01*
X423319Y219298D01*
X424902Y220881D01*
X426021Y222819D01*
X426353Y224061D01*
X491305D01*
X514075Y201291D01*
Y189130D01*
X512805Y188789D01*
X511802Y190526D01*
X510126Y192202D01*
X508074Y193387D01*
X505785Y194000D01*
X503415D01*
X501126Y193387D01*
X499074Y192202D01*
X497398Y190526D01*
X496213Y188474D01*
X495829Y187039D01*
X434644D01*
X349178Y272506D01*
X349821Y273619D01*
X350400Y275781D01*
Y278019D01*
X349821Y280181D01*
X348702Y282119D01*
X347119Y283702D01*
X345579Y284591D01*
X345919Y285861D01*
X347717D01*
X396308Y237270D01*
X396970Y236828D01*
X397750Y236673D01*
X480046D01*
X480826Y236828D01*
X481488Y237270D01*
X517556Y273338D01*
X517556Y273338D01*
X517998Y274000D01*
X518153Y274780D01*
Y383486D01*
X517998Y384267D01*
X517556Y384928D01*
X512244Y390240D01*
X512987Y391526D01*
X513600Y393815D01*
Y396185D01*
X512987Y398474D01*
X511802Y400526D01*
X510126Y402202D01*
X508074Y403387D01*
X505785Y404000D01*
X503415D01*
X501126Y403387D01*
X499074Y402202D01*
X497398Y400526D01*
X496213Y398474D01*
X495600Y396185D01*
Y393815D01*
X496213Y391526D01*
X497398Y389474D01*
X499074Y387799D01*
X501126Y386614D01*
X503415Y386000D01*
X505785D01*
X508074Y386614D01*
X509360Y387356D01*
X514075Y382642D01*
Y299129D01*
X512805Y298789D01*
X511802Y300526D01*
X510126Y302202D01*
X508074Y303387D01*
X506639Y303771D01*
Y354366D01*
X506484Y355146D01*
X506042Y355808D01*
X417538Y444312D01*
X416876Y444754D01*
X416096Y444909D01*
D02*
G37*
G36*
X343222Y236140D02*
X343170D01*
Y227370D01*
X351940D01*
Y227422D01*
X351256Y229975D01*
X349934Y232265D01*
X348065Y234134D01*
X345775Y235456D01*
X343222Y236140D01*
D02*
G37*
G36*
X340630D02*
X340578D01*
X338025Y235456D01*
X335735Y234134D01*
X333866Y232265D01*
X332544Y229975D01*
X331860Y227422D01*
Y227370D01*
X340630D01*
Y236140D01*
D02*
G37*
G36*
X351940Y224830D02*
X343170D01*
Y216060D01*
X343222D01*
X345775Y216744D01*
X348065Y218066D01*
X349934Y219935D01*
X351256Y222225D01*
X351940Y224778D01*
Y224830D01*
D02*
G37*
G36*
X340630D02*
X331860D01*
Y224778D01*
X332544Y222225D01*
X333866Y219935D01*
X335735Y218066D01*
X338025Y216744D01*
X340578Y216060D01*
X340630D01*
Y224830D01*
D02*
G37*
G36*
X298116Y200048D02*
X296724D01*
X295437Y199515D01*
X294509Y198587D01*
X61548D01*
X60768Y198432D01*
X60106Y197990D01*
X54760Y192644D01*
X53474Y193387D01*
X51185Y194000D01*
X48815D01*
X46526Y193387D01*
X44474Y192202D01*
X42798Y190526D01*
X41613Y188474D01*
X41000Y186185D01*
Y183815D01*
X41613Y181526D01*
X42798Y179474D01*
X44474Y177798D01*
X46526Y176614D01*
X48815Y176000D01*
X51185D01*
X53474Y176614D01*
X55526Y177798D01*
X57202Y179474D01*
X58387Y181526D01*
X59000Y183815D01*
Y186185D01*
X58387Y188474D01*
X57644Y189760D01*
X62393Y194509D01*
X71460D01*
X71670Y193239D01*
X69874Y192202D01*
X68198Y190526D01*
X67014Y188474D01*
X66400Y186185D01*
Y183815D01*
X67014Y181526D01*
X68198Y179474D01*
X69874Y177798D01*
X71926Y176614D01*
X74215Y176000D01*
X76585D01*
X78874Y176614D01*
X80926Y177798D01*
X82602Y179474D01*
X83787Y181526D01*
X84400Y183815D01*
Y186185D01*
X83787Y188474D01*
X82602Y190526D01*
X80926Y192202D01*
X79130Y193239D01*
X79341Y194509D01*
X294509D01*
X295437Y193581D01*
X296724Y193048D01*
X298116D01*
X299403Y193581D01*
X300387Y194565D01*
X300920Y195852D01*
Y197244D01*
X300387Y198531D01*
X299403Y199515D01*
X298116Y200048D01*
D02*
G37*
G36*
X261021Y171750D02*
X258980D01*
X257009Y171222D01*
X255242Y170201D01*
X253799Y168759D01*
X252778Y166991D01*
X252250Y165020D01*
Y162980D01*
X252778Y161009D01*
X253799Y159241D01*
X255242Y157798D01*
X257009Y156778D01*
X258980Y156250D01*
X261021D01*
X262992Y156778D01*
X264759Y157798D01*
X266202Y159241D01*
X267222Y161009D01*
X267750Y162980D01*
Y165020D01*
X267222Y166991D01*
X266202Y168759D01*
X264759Y170201D01*
X262992Y171222D01*
X261021Y171750D01*
D02*
G37*
G36*
X321020Y167750D02*
X318980D01*
X317009Y167222D01*
X315242Y166201D01*
X313799Y164759D01*
X312778Y162991D01*
X312660Y162549D01*
X305000D01*
X304025Y162355D01*
X303197Y161802D01*
X288198Y146802D01*
X287645Y145976D01*
X287451Y145000D01*
Y136056D01*
X278944Y127549D01*
X242401D01*
X241983Y127967D01*
X240696Y128500D01*
X239304D01*
X238017Y127967D01*
X237033Y126983D01*
X236500Y125696D01*
Y124304D01*
X237033Y123017D01*
X238017Y122033D01*
X239304Y121500D01*
X240696D01*
X241983Y122033D01*
X242401Y122451D01*
X280000D01*
X280975Y122645D01*
X281802Y123198D01*
X290994Y132390D01*
X291802Y132929D01*
X292355Y133757D01*
X292549Y134732D01*
Y143944D01*
X306056Y157451D01*
X312660D01*
X312778Y157009D01*
X313799Y155241D01*
X315242Y153798D01*
X317009Y152778D01*
X318980Y152250D01*
X321020D01*
X322991Y152778D01*
X324759Y153798D01*
X326202Y155241D01*
X327222Y157009D01*
X327750Y158980D01*
Y161020D01*
X327222Y162991D01*
X326202Y164759D01*
X324759Y166201D01*
X322991Y167222D01*
X321020Y167750D01*
D02*
G37*
G36*
X210696Y128500D02*
X209304D01*
X208017Y127967D01*
X207599Y127549D01*
X190797D01*
X190751Y127580D01*
X189775Y127774D01*
X188799Y127580D01*
X187973Y127027D01*
X176238Y115292D01*
X175685Y114466D01*
X175491Y113490D01*
Y91560D01*
X175685Y90584D01*
X176238Y89757D01*
X181150Y84845D01*
Y70750D01*
X198850D01*
Y88450D01*
X184755D01*
X180589Y92615D01*
Y98202D01*
X181859Y98447D01*
X183620Y96686D01*
X185989Y95318D01*
X188632Y94610D01*
X188730D01*
Y105000D01*
Y115390D01*
X188632D01*
X185989Y114682D01*
X183620Y113314D01*
X182661Y112355D01*
X181223Y112713D01*
X181140Y112985D01*
X190606Y122451D01*
X207599D01*
X208017Y122033D01*
X209304Y121500D01*
X210696D01*
X211983Y122033D01*
X212967Y123017D01*
X213500Y124304D01*
Y125696D01*
X212967Y126983D01*
X211983Y127967D01*
X210696Y128500D01*
D02*
G37*
G36*
X191368Y115390D02*
X191270D01*
Y106270D01*
X200390D01*
Y106368D01*
X199682Y109010D01*
X198314Y111379D01*
X196380Y113314D01*
X194010Y114682D01*
X191368Y115390D01*
D02*
G37*
G36*
X421270Y113501D02*
Y106270D01*
X428501D01*
X427958Y108296D01*
X426834Y110244D01*
X425244Y111833D01*
X423296Y112958D01*
X421270Y113501D01*
D02*
G37*
G36*
X418730D02*
X416704Y112958D01*
X414756Y111833D01*
X413166Y110244D01*
X412042Y108296D01*
X411499Y106270D01*
X418730D01*
Y113501D01*
D02*
G37*
G36*
X269219Y285400D02*
X266981D01*
X264819Y284821D01*
X262881Y283702D01*
X261298Y282119D01*
X260179Y280181D01*
X259600Y278019D01*
Y275781D01*
X260179Y273619D01*
X261298Y271681D01*
X262881Y270098D01*
X264819Y268979D01*
X266981Y268400D01*
X269219D01*
X271381Y268979D01*
X272494Y269622D01*
X367961Y174155D01*
Y112000D01*
X363000D01*
Y98000D01*
X377000D01*
Y112000D01*
X372039D01*
Y175000D01*
X371884Y175780D01*
X371442Y176442D01*
X371442Y176442D01*
X275378Y272506D01*
X276021Y273619D01*
X276600Y275781D01*
Y278019D01*
X276021Y280181D01*
X274902Y282119D01*
X273319Y283702D01*
X271381Y284821D01*
X269219Y285400D01*
D02*
G37*
G36*
X428501Y103730D02*
X421270D01*
Y96499D01*
X423296Y97042D01*
X425244Y98166D01*
X426834Y99756D01*
X427958Y101704D01*
X428501Y103730D01*
D02*
G37*
G36*
X418730D02*
X411499D01*
X412042Y101704D01*
X412429Y101033D01*
X401780Y90385D01*
X281836D01*
X280861Y90191D01*
X280034Y89638D01*
X264516Y74120D01*
X263586Y74657D01*
X261270Y75278D01*
Y67270D01*
X269278D01*
X268657Y69586D01*
X268120Y70516D01*
X282892Y85287D01*
X402836D01*
X403812Y85481D01*
X404638Y86034D01*
X416034Y97429D01*
X416704Y97042D01*
X418730Y96499D01*
Y103730D01*
D02*
G37*
G36*
X505785Y94000D02*
X503415D01*
X501126Y93386D01*
X499074Y92202D01*
X497398Y90526D01*
X496213Y88474D01*
X495600Y86185D01*
Y83815D01*
X496213Y81526D01*
X497398Y79474D01*
X499074Y77798D01*
X501126Y76613D01*
X503415Y76000D01*
X505785D01*
X508074Y76613D01*
X510126Y77798D01*
X511802Y79474D01*
X512987Y81526D01*
X513600Y83815D01*
Y86185D01*
X512987Y88474D01*
X511802Y90526D01*
X510126Y92202D01*
X508074Y93386D01*
X505785Y94000D01*
D02*
G37*
G36*
X76585D02*
X74215D01*
X71926Y93386D01*
X69874Y92202D01*
X68198Y90526D01*
X67014Y88474D01*
X66400Y86185D01*
Y83815D01*
X67014Y81526D01*
X68198Y79474D01*
X69874Y77798D01*
X71926Y76613D01*
X74215Y76000D01*
X76585D01*
X78874Y76613D01*
X80926Y77798D01*
X82602Y79474D01*
X83787Y81526D01*
X84400Y83815D01*
Y86185D01*
X83787Y88474D01*
X82602Y90526D01*
X80926Y92202D01*
X78874Y93386D01*
X76585Y94000D01*
D02*
G37*
G36*
X327750Y77750D02*
X312250D01*
Y62250D01*
X327750D01*
Y77750D01*
D02*
G37*
G36*
X269278Y64730D02*
X261270D01*
Y56723D01*
X263586Y57343D01*
X265704Y58566D01*
X267434Y60296D01*
X268657Y62414D01*
X269278Y64730D01*
D02*
G37*
G36*
X200390Y103730D02*
X191270D01*
Y94610D01*
X191368D01*
X194010Y95318D01*
X195320Y96074D01*
X227197Y64198D01*
X228024Y63645D01*
X229000Y63451D01*
X251066D01*
X251343Y62414D01*
X252566Y60296D01*
X254296Y58566D01*
X256414Y57343D01*
X258730Y56723D01*
Y66000D01*
Y75278D01*
X256414Y74657D01*
X254296Y73434D01*
X252566Y71704D01*
X251343Y69586D01*
X251066Y68549D01*
X230055D01*
X198925Y99679D01*
X199682Y100989D01*
X200390Y103632D01*
Y103730D01*
D02*
G37*
%LPD*%
D10*
X268100Y276900D02*
X370000Y175000D01*
Y105000D02*
Y175000D01*
X75400Y495000D02*
X161000D01*
X190000Y524000D01*
X501000D01*
X530000Y495000D01*
X50000Y473178D02*
Y495000D01*
Y473178D02*
X181088Y342090D01*
X330890D01*
X341900Y353100D01*
X47300Y395000D02*
X79382Y362918D01*
X119366D01*
X165594Y316690D01*
X281926D01*
X292936Y327700D01*
X341900D01*
X330694Y262706D02*
X341900Y251500D01*
X330694Y262706D02*
Y283416D01*
X335178Y287900D01*
X348562D01*
X397750Y238712D01*
X480046D01*
X516114Y274780D01*
Y383486D01*
X504600Y395000D02*
X516114Y383486D01*
X50000Y285000D02*
X89056Y324056D01*
X121060D01*
X155604Y289512D01*
X307112D01*
X330900Y313300D01*
X356300D01*
X418100Y251500D01*
X341900Y403900D02*
X380870Y442870D01*
X416096D01*
X504600Y354366D01*
Y295000D02*
Y354366D01*
X50000Y185000D02*
X61548Y196548D01*
X297420D01*
X341900Y276900D02*
X433800Y185000D01*
X504600D01*
X516114Y121364D02*
Y202136D01*
X492150Y226100D02*
X516114Y202136D01*
X418100Y226100D02*
X492150D01*
X191900Y327700D02*
X268100D01*
X50000Y85000D02*
X81708Y53292D01*
X448042D01*
X516114Y121364D01*
D25*
X190000Y105000D02*
D03*
D26*
Y79600D02*
D03*
D27*
X420000Y105000D02*
D03*
X310000Y475000D02*
D03*
D28*
X370000Y105000D02*
D03*
X260000Y475000D02*
D03*
D30*
X289732Y134732D02*
X290000D01*
X280000Y125000D02*
X289732Y134732D01*
X240000Y125000D02*
X280000D01*
X190000D02*
X210000D01*
X178040Y113490D02*
X189775Y125225D01*
X190000Y125000D01*
X305000Y160000D02*
X320000D01*
X290000Y145000D02*
X305000Y160000D01*
X290000Y134732D02*
Y145000D01*
X190000Y105000D02*
X229000Y66000D01*
X260000D01*
X281836Y87836D01*
X402836D01*
X420000Y105000D01*
X190000Y426000D02*
X261000D01*
X310000Y475000D01*
X178040Y91560D02*
X190000Y79600D01*
X178040Y91560D02*
Y113490D01*
X268100Y353100D02*
X305096Y390096D01*
X404296D01*
X418100Y403900D01*
D31*
X191900Y353100D02*
D03*
X341900Y403900D02*
D03*
D32*
X191900Y327700D02*
D03*
Y302300D02*
D03*
Y276900D02*
D03*
X268100Y353100D02*
D03*
Y327700D02*
D03*
Y302300D02*
D03*
Y276900D02*
D03*
X418100Y226100D02*
D03*
Y251500D02*
D03*
Y276900D02*
D03*
Y302300D02*
D03*
Y327700D02*
D03*
Y353100D02*
D03*
Y378500D02*
D03*
Y403900D02*
D03*
X341900Y226100D02*
D03*
Y251500D02*
D03*
Y276900D02*
D03*
Y302300D02*
D03*
Y327700D02*
D03*
Y353100D02*
D03*
Y378500D02*
D03*
D33*
X75400Y495000D02*
D03*
X50000D02*
D03*
X47300Y395000D02*
D03*
X72700D02*
D03*
X530000Y185000D02*
D03*
X504600D02*
D03*
X530000Y295000D02*
D03*
X504600D02*
D03*
X530000Y395000D02*
D03*
X504600D02*
D03*
X530000Y495000D02*
D03*
X504600D02*
D03*
X530000Y85000D02*
D03*
X504600D02*
D03*
X75400D02*
D03*
X50000D02*
D03*
X75400Y185000D02*
D03*
X50000D02*
D03*
X75400Y285000D02*
D03*
X50000D02*
D03*
D34*
X290000Y20000D02*
D03*
X515000Y560000D02*
D03*
X60000D02*
D03*
D35*
X190000Y524000D02*
D03*
Y426000D02*
D03*
X260000Y164000D02*
D03*
Y66000D02*
D03*
X320000Y160000D02*
D03*
D36*
Y70000D02*
D03*
D37*
X240000Y125000D02*
D03*
X210000D02*
D03*
X297420Y196548D02*
D03*
M02*
