G04*
G04 #@! TF.GenerationSoftware,Altium Limited,Altium Designer,22.7.1 (60)*
G04*
G04 Layer_Color=8388736*
%FSLAX44Y44*%
%MOMM*%
G71*
G04*
G04 #@! TF.SameCoordinates,29AA5E4F-6587-4ACD-81CD-572689CA6415*
G04*
G04*
G04 #@! TF.FilePolarity,Negative*
G04*
G01*
G75*
%ADD17R,1.8032X1.8032*%
%ADD18R,1.8032X1.3032*%
%ADD19R,1.7032X1.7032*%
%ADD20C,1.7032*%
%ADD21C,1.8032*%
%ADD22C,1.7272*%
%ADD23C,1.5532*%
%ADD24R,1.5532X1.5532*%
%ADD25C,1.5700*%
%ADD26R,1.5700X1.5700*%
%ADD27C,1.2000*%
%ADD28R,1.2000X1.2000*%
%ADD29C,0.7032*%
D17*
X410000Y475000D02*
D03*
D18*
X381000Y463500D02*
D03*
Y486500D02*
D03*
D19*
X191900Y353100D02*
D03*
X341900Y403900D02*
D03*
D20*
X191900Y327700D02*
D03*
Y302300D02*
D03*
Y276900D02*
D03*
X268100Y353100D02*
D03*
Y327700D02*
D03*
Y302300D02*
D03*
Y276900D02*
D03*
X418100Y226100D02*
D03*
Y251500D02*
D03*
Y276900D02*
D03*
Y302300D02*
D03*
Y327700D02*
D03*
Y353100D02*
D03*
Y378500D02*
D03*
Y403900D02*
D03*
X341900Y226100D02*
D03*
Y251500D02*
D03*
Y276900D02*
D03*
Y302300D02*
D03*
Y327700D02*
D03*
Y353100D02*
D03*
Y378500D02*
D03*
D21*
X75400Y495000D02*
D03*
X50000D02*
D03*
X47300Y395000D02*
D03*
X72700D02*
D03*
X530000Y185000D02*
D03*
X504600D02*
D03*
X530000Y295000D02*
D03*
X504600D02*
D03*
X530000Y395000D02*
D03*
X504600D02*
D03*
X530000Y495000D02*
D03*
X504600D02*
D03*
X530000Y85000D02*
D03*
X504600D02*
D03*
X75400D02*
D03*
X50000D02*
D03*
X75400Y185000D02*
D03*
X50000D02*
D03*
X75400Y285000D02*
D03*
X50000D02*
D03*
D22*
X290000Y20000D02*
D03*
X515000Y560000D02*
D03*
X60000D02*
D03*
D23*
X190000Y426000D02*
D03*
X260000Y164000D02*
D03*
Y66000D02*
D03*
X320000Y160000D02*
D03*
D24*
Y70000D02*
D03*
D25*
X190000Y105000D02*
D03*
D26*
Y79600D02*
D03*
D27*
X420000Y105000D02*
D03*
X310000Y475000D02*
D03*
D28*
X370000Y105000D02*
D03*
X260000Y475000D02*
D03*
D29*
X240000Y125000D02*
D03*
X210000D02*
D03*
X297420Y196548D02*
D03*
M02*
