G04*
G04 #@! TF.GenerationSoftware,Altium Limited,Altium Designer,22.7.1 (60)*
G04*
G04 Layer_Physical_Order=1*
G04 Layer_Color=255*
%FSLAX44Y44*%
%MOMM*%
G71*
G04*
G04 #@! TF.SameCoordinates,29AA5E4F-6587-4ACD-81CD-572689CA6415*
G04*
G04*
G04 #@! TF.FilePolarity,Positive*
G04*
G01*
G75*
%ADD10C,0.2000*%
%ADD15R,1.6000X1.6000*%
%ADD16R,1.6000X1.1000*%
%ADD25C,1.5700*%
%ADD26R,1.5700X1.5700*%
%ADD27C,1.2000*%
%ADD28R,1.2000X1.2000*%
%ADD30C,0.3000*%
%ADD31R,1.5000X1.5000*%
%ADD32C,1.5000*%
%ADD33C,1.6000*%
%ADD34C,1.5240*%
%ADD35C,1.3500*%
%ADD36R,1.3500X1.3500*%
%ADD37C,0.5000*%
G36*
X535000Y503776D02*
X533900Y503141D01*
X533474Y503387D01*
X531185Y504000D01*
X528815D01*
X526526Y503387D01*
X524474Y502202D01*
X522798Y500526D01*
X521614Y498474D01*
X521000Y496185D01*
Y493815D01*
X521614Y491526D01*
X522798Y489474D01*
X524474Y487798D01*
X526526Y486613D01*
X527961Y486229D01*
Y403771D01*
X526526Y403387D01*
X524474Y402202D01*
X522798Y400526D01*
X521614Y398474D01*
X521000Y396185D01*
Y393815D01*
X521614Y391526D01*
X522798Y389474D01*
X524474Y387799D01*
X526526Y386614D01*
X527961Y386229D01*
Y303771D01*
X526526Y303387D01*
X524474Y302202D01*
X522798Y300526D01*
X521614Y298474D01*
X521000Y296185D01*
Y293815D01*
X521614Y291526D01*
X522798Y289474D01*
X524474Y287798D01*
X526526Y286613D01*
X527961Y286229D01*
Y193771D01*
X526526Y193387D01*
X524474Y192202D01*
X522798Y190526D01*
X521614Y188474D01*
X521000Y186185D01*
Y183815D01*
X521614Y181526D01*
X522798Y179474D01*
X524474Y177798D01*
X526526Y176614D01*
X527961Y176229D01*
Y93771D01*
X526526Y93386D01*
X524474Y92202D01*
X522798Y90526D01*
X521614Y88474D01*
X521000Y86185D01*
Y83815D01*
X521614Y81526D01*
X522798Y79474D01*
X524474Y77798D01*
X526526Y76613D01*
X528815Y76000D01*
X531185D01*
X533474Y76613D01*
X533900Y76859D01*
X535000Y76224D01*
Y40000D01*
X35000D01*
Y540000D01*
X535000D01*
Y503776D01*
D02*
G37*
%LPC*%
G36*
X505785Y504000D02*
X503415D01*
X501126Y503387D01*
X499074Y502202D01*
X497398Y500526D01*
X496213Y498474D01*
X495829Y497039D01*
X458400D01*
X457620Y496884D01*
X456958Y496442D01*
X346294Y385778D01*
X345181Y386421D01*
X343019Y387000D01*
X340781D01*
X338619Y386421D01*
X336681Y385302D01*
X335098Y383719D01*
X333979Y381781D01*
X333400Y379619D01*
Y377381D01*
X333979Y375219D01*
X335098Y373281D01*
X336681Y371698D01*
X338619Y370579D01*
X340781Y370000D01*
X343019D01*
X345181Y370579D01*
X347119Y371698D01*
X348702Y373281D01*
X349821Y375219D01*
X350400Y377381D01*
Y379619D01*
X349821Y381781D01*
X349178Y382894D01*
X459245Y492961D01*
X495829D01*
X496213Y491526D01*
X497398Y489474D01*
X499074Y487798D01*
X501126Y486613D01*
X503415Y486000D01*
X505785D01*
X508074Y486613D01*
X510126Y487798D01*
X511802Y489474D01*
X512987Y491526D01*
X513600Y493815D01*
Y496185D01*
X512987Y498474D01*
X511802Y500526D01*
X510126Y502202D01*
X508074Y503387D01*
X505785Y504000D01*
D02*
G37*
G36*
X51185D02*
X48815D01*
X46526Y503387D01*
X44474Y502202D01*
X42798Y500526D01*
X41613Y498474D01*
X41000Y496185D01*
Y493815D01*
X41613Y491526D01*
X42798Y489474D01*
X44474Y487798D01*
X46526Y486613D01*
X48815Y486000D01*
X51185D01*
X53474Y486613D01*
X55526Y487798D01*
X57202Y489474D01*
X58387Y491526D01*
X59000Y493815D01*
Y496185D01*
X58387Y498474D01*
X57202Y500526D01*
X55526Y502202D01*
X53474Y503387D01*
X51185Y504000D01*
D02*
G37*
G36*
X310922Y482000D02*
X309079D01*
X307298Y481523D01*
X305702Y480602D01*
X304399Y479298D01*
X303477Y477702D01*
X303000Y475922D01*
Y474078D01*
X303477Y472298D01*
X304399Y470702D01*
X305702Y469399D01*
X307298Y468477D01*
X309079Y468000D01*
X310922D01*
X312702Y468477D01*
X314298Y469399D01*
X315602Y470702D01*
X316523Y472298D01*
X317000Y474078D01*
Y475922D01*
X316523Y477702D01*
X315602Y479298D01*
X314298Y480602D01*
X312702Y481523D01*
X310922Y482000D01*
D02*
G37*
G36*
X390000Y493000D02*
X372000D01*
Y480000D01*
X390000D01*
Y484461D01*
X397655D01*
X401000Y481116D01*
Y468287D01*
X391270Y457787D01*
X390000Y458285D01*
Y470000D01*
X372000D01*
Y465539D01*
X272345D01*
X267000Y470884D01*
Y482000D01*
X253000D01*
Y468000D01*
X264116D01*
X270058Y462058D01*
X270058Y462058D01*
X270720Y461616D01*
X271500Y461461D01*
X372000D01*
Y457413D01*
X372000Y457000D01*
X371085Y456143D01*
X330440D01*
X330440Y456143D01*
X329660Y455988D01*
X328998Y455546D01*
X328998Y455546D01*
X288358Y414906D01*
X287916Y414244D01*
X287761Y413464D01*
Y350245D01*
X272494Y334978D01*
X271381Y335621D01*
X269219Y336200D01*
X266981D01*
X264819Y335621D01*
X262881Y334502D01*
X261298Y332919D01*
X260179Y330981D01*
X259600Y328819D01*
Y326581D01*
X260179Y324419D01*
X261298Y322481D01*
X262881Y320898D01*
X264819Y319779D01*
X266061Y319447D01*
Y310553D01*
X264819Y310221D01*
X262881Y309102D01*
X261298Y307519D01*
X260179Y305581D01*
X259600Y303419D01*
Y301181D01*
X260179Y299019D01*
X261298Y297081D01*
X262881Y295498D01*
X264819Y294379D01*
X266981Y293800D01*
X269219D01*
X271381Y294379D01*
X272494Y295022D01*
X288015Y279501D01*
Y99946D01*
X288170Y99166D01*
X288612Y98504D01*
X312250Y74866D01*
Y62250D01*
X327131D01*
X327750Y62250D01*
X328401Y61250D01*
Y60741D01*
X325531Y57871D01*
X314013D01*
X256039Y115845D01*
Y136641D01*
X261442Y142044D01*
X261884Y142705D01*
X262039Y143485D01*
X262039Y143486D01*
Y156523D01*
X262992Y156778D01*
X264759Y157798D01*
X266202Y159241D01*
X267222Y161009D01*
X267750Y162980D01*
Y165020D01*
X267222Y166991D01*
X266202Y168759D01*
X264759Y170201D01*
X262992Y171222D01*
X262039Y171477D01*
Y234200D01*
X261884Y234980D01*
X261442Y235641D01*
X261442Y235641D01*
X199178Y297906D01*
X199820Y299019D01*
X200400Y301181D01*
Y303419D01*
X199820Y305581D01*
X198701Y307519D01*
X197119Y309102D01*
X195596Y309981D01*
X195936Y311251D01*
X228800D01*
X229775Y311445D01*
X230602Y311998D01*
X263035Y344431D01*
X264224Y343744D01*
X266778Y343060D01*
X266830D01*
Y351830D01*
X258060D01*
Y351778D01*
X258744Y349225D01*
X259431Y348035D01*
X227744Y316349D01*
X186400D01*
X185424Y316155D01*
X184597Y315602D01*
X178718Y309724D01*
X178213Y309792D01*
X177449Y310169D01*
Y335044D01*
X187005Y344600D01*
X200400D01*
Y361600D01*
X194449D01*
Y388572D01*
X194255Y389548D01*
X193702Y390374D01*
X192549Y391528D01*
Y418660D01*
X192991Y418778D01*
X194758Y419798D01*
X196201Y421241D01*
X197222Y423009D01*
X197750Y424980D01*
Y427020D01*
X197222Y428991D01*
X196201Y430759D01*
X194758Y432201D01*
X192991Y433222D01*
X191020Y433750D01*
X188979D01*
X187008Y433222D01*
X185241Y432201D01*
X183798Y430759D01*
X182778Y428991D01*
X182250Y427020D01*
Y424980D01*
X182778Y423009D01*
X183798Y421241D01*
X185241Y419798D01*
X187008Y418778D01*
X187451Y418660D01*
Y390472D01*
X187645Y389496D01*
X188197Y388670D01*
X189351Y387516D01*
Y361600D01*
X183400D01*
Y348205D01*
X173097Y337902D01*
X172545Y337075D01*
X172351Y336100D01*
Y120100D01*
X172545Y119125D01*
X173097Y118298D01*
X182202Y109193D01*
X181753Y108416D01*
X181150Y106165D01*
Y103835D01*
X181753Y101584D01*
X182918Y99566D01*
X184566Y97918D01*
X186584Y96753D01*
X188835Y96150D01*
X191165D01*
X193416Y96753D01*
X195434Y97918D01*
X197082Y99566D01*
X198097Y101325D01*
X199367Y101104D01*
Y92572D01*
X196785Y89990D01*
X191270D01*
Y80870D01*
X200390D01*
Y86385D01*
X203718Y89714D01*
X204271Y90541D01*
X204465Y91516D01*
Y121874D01*
X205690Y122137D01*
X205735Y122137D01*
X207145Y120727D01*
X208730Y120071D01*
Y125000D01*
Y129929D01*
X207145Y129273D01*
X205735Y127863D01*
X205690Y127863D01*
X204465Y128126D01*
Y266884D01*
X204271Y267859D01*
X203718Y268686D01*
X200569Y271835D01*
X201256Y273025D01*
X201940Y275578D01*
Y275630D01*
X193170D01*
Y266860D01*
X193222D01*
X195775Y267544D01*
X196964Y268231D01*
X199367Y265828D01*
Y108896D01*
X198097Y108675D01*
X197082Y110434D01*
X195434Y112082D01*
X193416Y113247D01*
X191165Y113850D01*
X188835D01*
X186584Y113247D01*
X185807Y112798D01*
X177449Y121156D01*
Y286031D01*
X178213Y286408D01*
X178718Y286476D01*
X183230Y281964D01*
X182544Y280775D01*
X181860Y278222D01*
Y278170D01*
X190630D01*
Y286940D01*
X190578D01*
X188025Y286256D01*
X186835Y285569D01*
X182949Y289456D01*
Y298264D01*
X184219Y298604D01*
X185098Y297081D01*
X186681Y295498D01*
X188619Y294379D01*
X190781Y293800D01*
X193019D01*
X195181Y294379D01*
X196294Y295022D01*
X257961Y233355D01*
Y171477D01*
X257009Y171222D01*
X255242Y170201D01*
X253799Y168759D01*
X252778Y166991D01*
X252250Y165020D01*
Y162980D01*
X252778Y161009D01*
X253799Y159241D01*
X255242Y157798D01*
X257009Y156778D01*
X257961Y156523D01*
Y144330D01*
X252558Y138927D01*
X252116Y138266D01*
X251961Y137485D01*
Y115000D01*
X252116Y114220D01*
X252558Y113558D01*
X311726Y54390D01*
X312388Y53948D01*
X313168Y53793D01*
X313168Y53793D01*
X326376D01*
X327156Y53948D01*
X327818Y54390D01*
X331882Y58454D01*
X332324Y59116D01*
X332479Y59896D01*
Y223510D01*
X333749Y223678D01*
X333979Y222819D01*
X335098Y220881D01*
X336681Y219298D01*
X338619Y218179D01*
X340781Y217600D01*
X343019D01*
X345181Y218179D01*
X345837Y218558D01*
X417451Y146944D01*
Y111564D01*
X417298Y111523D01*
X415702Y110601D01*
X414398Y109298D01*
X413477Y107702D01*
X413000Y105921D01*
Y104078D01*
X413477Y102298D01*
X414398Y100702D01*
X415702Y99398D01*
X417298Y98477D01*
X419078Y98000D01*
X420922D01*
X422702Y98477D01*
X424298Y99398D01*
X425601Y100702D01*
X426523Y102298D01*
X427000Y104078D01*
Y105921D01*
X426523Y107702D01*
X425601Y109298D01*
X424298Y110601D01*
X422702Y111523D01*
X422549Y111564D01*
Y148000D01*
X422355Y148975D01*
X421802Y149802D01*
X349442Y222163D01*
X349821Y222819D01*
X350400Y224981D01*
Y227219D01*
X349821Y229381D01*
X349442Y230037D01*
X408188Y288783D01*
X408741Y289611D01*
X408935Y290586D01*
Y298756D01*
X410179Y299019D01*
X411298Y297081D01*
X412881Y295498D01*
X414819Y294379D01*
X416981Y293800D01*
X419219D01*
X421381Y294379D01*
X423319Y295498D01*
X424902Y297081D01*
X426021Y299019D01*
X426600Y301181D01*
Y303419D01*
X426021Y305581D01*
X424902Y307519D01*
X423319Y309102D01*
X421381Y310221D01*
X419219Y310800D01*
X416981D01*
X414819Y310221D01*
X412881Y309102D01*
X411298Y307519D01*
X410179Y305581D01*
X408935Y305844D01*
Y314930D01*
X414163Y320158D01*
X414819Y319779D01*
X416981Y319200D01*
X419219D01*
X421381Y319779D01*
X423319Y320898D01*
X424902Y322481D01*
X426021Y324419D01*
X426600Y326581D01*
Y328819D01*
X426021Y330981D01*
X425642Y331637D01*
X431556Y337551D01*
X432109Y338378D01*
X432303Y339354D01*
Y366846D01*
X432109Y367821D01*
X431556Y368648D01*
X425642Y374563D01*
X426021Y375219D01*
X426600Y377381D01*
Y379619D01*
X426021Y381781D01*
X424902Y383719D01*
X423319Y385302D01*
X421381Y386421D01*
X419219Y387000D01*
X416981D01*
X414819Y386421D01*
X412881Y385302D01*
X411298Y383719D01*
X410179Y381781D01*
X409600Y379619D01*
Y377381D01*
X410179Y375219D01*
X411298Y373281D01*
X412881Y371698D01*
X414819Y370579D01*
X416981Y370000D01*
X419219D01*
X421381Y370579D01*
X422037Y370958D01*
X427205Y365790D01*
Y357334D01*
X427014Y357200D01*
X425332Y357573D01*
X424902Y358319D01*
X423319Y359902D01*
X421381Y361021D01*
X419219Y361600D01*
X416981D01*
X414819Y361021D01*
X412881Y359902D01*
X411298Y358319D01*
X410179Y356381D01*
X409600Y354219D01*
Y351981D01*
X410179Y349819D01*
X410822Y348706D01*
X353667Y291551D01*
X336536D01*
X335756Y291396D01*
X335516Y291236D01*
X334706Y292222D01*
X337506Y295022D01*
X338619Y294379D01*
X340781Y293800D01*
X343019D01*
X345181Y294379D01*
X347119Y295498D01*
X348702Y297081D01*
X349821Y299019D01*
X350400Y301181D01*
Y303419D01*
X349821Y305581D01*
X348702Y307519D01*
X347119Y309102D01*
X345181Y310221D01*
X343019Y310800D01*
X340781D01*
X338619Y310221D01*
X336681Y309102D01*
X335098Y307519D01*
X333979Y305581D01*
X333400Y303419D01*
Y301181D01*
X333979Y299019D01*
X334622Y297906D01*
X304106Y267390D01*
X303664Y266728D01*
X303509Y265948D01*
Y205521D01*
X298036Y200048D01*
X296724D01*
X295437Y199515D01*
X294453Y198531D01*
X293920Y197244D01*
Y195852D01*
X294453Y194565D01*
X295437Y193581D01*
X296724Y193048D01*
X298116D01*
X299403Y193581D01*
X300387Y194565D01*
X300920Y195852D01*
Y197164D01*
X306990Y203234D01*
X306990Y203234D01*
X307432Y203896D01*
X307587Y204676D01*
Y265103D01*
X327730Y285246D01*
X328716Y284436D01*
X328556Y284196D01*
X328401Y283416D01*
Y166436D01*
X327131Y166007D01*
X325704Y167434D01*
X323586Y168657D01*
X321270Y169277D01*
Y160000D01*
Y150723D01*
X323586Y151343D01*
X325704Y152566D01*
X327131Y153993D01*
X328401Y153564D01*
Y78751D01*
X327750Y77750D01*
X327131Y77750D01*
X315134D01*
X292093Y100791D01*
Y280346D01*
X291938Y281126D01*
X291496Y281788D01*
X291496Y281788D01*
X275378Y297906D01*
X276021Y299019D01*
X276600Y301181D01*
Y303419D01*
X276021Y305581D01*
X274902Y307519D01*
X273319Y309102D01*
X271381Y310221D01*
X270139Y310553D01*
Y319447D01*
X271381Y319779D01*
X273319Y320898D01*
X274902Y322481D01*
X276021Y324419D01*
X276600Y326581D01*
Y328819D01*
X276021Y330981D01*
X275378Y332094D01*
X291242Y347958D01*
X291684Y348620D01*
X291839Y349400D01*
Y412619D01*
X331285Y452065D01*
X390638D01*
X390677Y452072D01*
X390716Y452066D01*
X391065Y452150D01*
X391418Y452220D01*
X391451Y452242D01*
X391489Y452251D01*
X391781Y452462D01*
X392080Y452662D01*
X392102Y452695D01*
X392134Y452718D01*
X404441Y466000D01*
X419000D01*
Y484000D01*
X403884D01*
X399942Y487942D01*
X399280Y488384D01*
X398500Y488539D01*
X390000D01*
Y493000D01*
D02*
G37*
G36*
X419422Y413940D02*
X419370D01*
Y405170D01*
X428140D01*
Y405222D01*
X427456Y407775D01*
X426134Y410065D01*
X424265Y411934D01*
X421975Y413256D01*
X419422Y413940D01*
D02*
G37*
G36*
X416830D02*
X416778D01*
X414225Y413256D01*
X411935Y411934D01*
X410066Y410065D01*
X408744Y407775D01*
X408060Y405222D01*
Y405170D01*
X416830D01*
Y413940D01*
D02*
G37*
G36*
X350400Y412400D02*
X333400D01*
Y395400D01*
X350400D01*
Y412400D01*
D02*
G37*
G36*
X428140Y402630D02*
X419370D01*
Y393860D01*
X419422D01*
X421975Y394544D01*
X424265Y395866D01*
X426134Y397735D01*
X427456Y400025D01*
X428140Y402578D01*
Y402630D01*
D02*
G37*
G36*
X416830D02*
X408060D01*
Y402578D01*
X408744Y400025D01*
X410066Y397735D01*
X411935Y395866D01*
X414225Y394544D01*
X416778Y393860D01*
X416830D01*
Y402630D01*
D02*
G37*
G36*
X505785Y404000D02*
X503415D01*
X501126Y403387D01*
X499074Y402202D01*
X497398Y400526D01*
X496213Y398474D01*
X495600Y396185D01*
Y393815D01*
X496213Y391526D01*
X497398Y389474D01*
X499074Y387799D01*
X501126Y386614D01*
X503415Y386000D01*
X505785D01*
X508074Y386614D01*
X510126Y387799D01*
X511802Y389474D01*
X512987Y391526D01*
X513600Y393815D01*
Y396185D01*
X512987Y398474D01*
X511802Y400526D01*
X510126Y402202D01*
X508074Y403387D01*
X505785Y404000D01*
D02*
G37*
G36*
X48485D02*
X46115D01*
X43826Y403387D01*
X41774Y402202D01*
X40098Y400526D01*
X38914Y398474D01*
X38300Y396185D01*
Y393815D01*
X38914Y391526D01*
X40098Y389474D01*
X41774Y387799D01*
X43826Y386614D01*
X46115Y386000D01*
X48485D01*
X50774Y386614D01*
X52826Y387799D01*
X54502Y389474D01*
X55687Y391526D01*
X56300Y393815D01*
Y396185D01*
X55687Y398474D01*
X54502Y400526D01*
X52826Y402202D01*
X50774Y403387D01*
X48485Y404000D01*
D02*
G37*
G36*
X269422Y363140D02*
X269370D01*
Y354370D01*
X278140D01*
Y354422D01*
X277456Y356975D01*
X276134Y359265D01*
X274265Y361134D01*
X271975Y362456D01*
X269422Y363140D01*
D02*
G37*
G36*
X266830D02*
X266778D01*
X264224Y362456D01*
X261935Y361134D01*
X260066Y359265D01*
X258744Y356975D01*
X258060Y354422D01*
Y354370D01*
X266830D01*
Y363140D01*
D02*
G37*
G36*
X343019Y361600D02*
X340781D01*
X338619Y361021D01*
X336681Y359902D01*
X335098Y358319D01*
X333979Y356381D01*
X333400Y354219D01*
Y351981D01*
X333979Y349819D01*
X335098Y347881D01*
X336681Y346298D01*
X338619Y345179D01*
X340781Y344600D01*
X343019D01*
X345181Y345179D01*
X347119Y346298D01*
X348702Y347881D01*
X349821Y349819D01*
X350400Y351981D01*
Y354219D01*
X349821Y356381D01*
X348702Y358319D01*
X347119Y359902D01*
X345181Y361021D01*
X343019Y361600D01*
D02*
G37*
G36*
X278140Y351830D02*
X269370D01*
Y343060D01*
X269422D01*
X271975Y343744D01*
X274265Y345066D01*
X276134Y346935D01*
X277456Y349225D01*
X278140Y351778D01*
Y351830D01*
D02*
G37*
G36*
X343019Y336200D02*
X340781D01*
X338619Y335621D01*
X336681Y334502D01*
X335098Y332919D01*
X333979Y330981D01*
X333400Y328819D01*
Y326581D01*
X333979Y324419D01*
X335098Y322481D01*
X336681Y320898D01*
X338619Y319779D01*
X340781Y319200D01*
X343019D01*
X345181Y319779D01*
X347119Y320898D01*
X348702Y322481D01*
X349821Y324419D01*
X350400Y326581D01*
Y328819D01*
X349821Y330981D01*
X348702Y332919D01*
X347119Y334502D01*
X345181Y335621D01*
X343019Y336200D01*
D02*
G37*
G36*
X193019D02*
X190781D01*
X188619Y335621D01*
X186681Y334502D01*
X185098Y332919D01*
X183979Y330981D01*
X183400Y328819D01*
Y326581D01*
X183979Y324419D01*
X185098Y322481D01*
X186681Y320898D01*
X188619Y319779D01*
X190781Y319200D01*
X193019D01*
X195181Y319779D01*
X197119Y320898D01*
X198701Y322481D01*
X199820Y324419D01*
X200400Y326581D01*
Y328819D01*
X199820Y330981D01*
X198701Y332919D01*
X197119Y334502D01*
X195181Y335621D01*
X193019Y336200D01*
D02*
G37*
G36*
X505785Y304000D02*
X503415D01*
X501126Y303387D01*
X499074Y302202D01*
X497398Y300526D01*
X496213Y298474D01*
X495600Y296185D01*
Y293815D01*
X496213Y291526D01*
X497398Y289474D01*
X499074Y287798D01*
X501126Y286613D01*
X503415Y286000D01*
X505785D01*
X508074Y286613D01*
X510126Y287798D01*
X511802Y289474D01*
X512987Y291526D01*
X513600Y293815D01*
Y296185D01*
X512987Y298474D01*
X511802Y300526D01*
X510126Y302202D01*
X508074Y303387D01*
X505785Y304000D01*
D02*
G37*
G36*
X193222Y286940D02*
X193170D01*
Y278170D01*
X201940D01*
Y278222D01*
X201256Y280775D01*
X199934Y283065D01*
X198064Y284934D01*
X195775Y286256D01*
X193222Y286940D01*
D02*
G37*
G36*
X51185Y294000D02*
X48815D01*
X46526Y293387D01*
X44474Y292202D01*
X42798Y290526D01*
X41613Y288474D01*
X41000Y286185D01*
Y283815D01*
X41613Y281526D01*
X42798Y279474D01*
X44474Y277798D01*
X46526Y276613D01*
X48815Y276000D01*
X51185D01*
X53474Y276613D01*
X55526Y277798D01*
X57202Y279474D01*
X58387Y281526D01*
X59000Y283815D01*
Y286185D01*
X58387Y288474D01*
X57202Y290526D01*
X55526Y292202D01*
X53474Y293387D01*
X51185Y294000D01*
D02*
G37*
G36*
X269219Y285400D02*
X266981D01*
X264819Y284821D01*
X262881Y283702D01*
X261298Y282119D01*
X260179Y280181D01*
X259600Y278019D01*
Y275781D01*
X260179Y273619D01*
X261298Y271681D01*
X262881Y270098D01*
X264819Y268979D01*
X266981Y268400D01*
X269219D01*
X271381Y268979D01*
X273319Y270098D01*
X274902Y271681D01*
X276021Y273619D01*
X276600Y275781D01*
Y278019D01*
X276021Y280181D01*
X274902Y282119D01*
X273319Y283702D01*
X271381Y284821D01*
X269219Y285400D01*
D02*
G37*
G36*
X190630Y275630D02*
X181860D01*
Y275578D01*
X182544Y273025D01*
X183866Y270735D01*
X185735Y268866D01*
X188025Y267544D01*
X190578Y266860D01*
X190630D01*
Y275630D01*
D02*
G37*
G36*
X419219Y260000D02*
X416981D01*
X414819Y259421D01*
X412881Y258302D01*
X411298Y256719D01*
X410179Y254781D01*
X409600Y252619D01*
Y250381D01*
X410179Y248219D01*
X411298Y246281D01*
X412881Y244698D01*
X414819Y243579D01*
X416981Y243000D01*
X419219D01*
X421381Y243579D01*
X423319Y244698D01*
X424902Y246281D01*
X426021Y248219D01*
X426600Y250381D01*
Y252619D01*
X426021Y254781D01*
X424902Y256719D01*
X423319Y258302D01*
X421381Y259421D01*
X419219Y260000D01*
D02*
G37*
G36*
Y234600D02*
X416981D01*
X414819Y234021D01*
X412881Y232902D01*
X411298Y231319D01*
X410179Y229381D01*
X409600Y227219D01*
Y224981D01*
X410179Y222819D01*
X411298Y220881D01*
X412881Y219298D01*
X414819Y218179D01*
X416981Y217600D01*
X419219D01*
X421381Y218179D01*
X423319Y219298D01*
X424902Y220881D01*
X426021Y222819D01*
X426600Y224981D01*
Y227219D01*
X426021Y229381D01*
X424902Y231319D01*
X423319Y232902D01*
X421381Y234021D01*
X419219Y234600D01*
D02*
G37*
G36*
X505785Y194000D02*
X503415D01*
X501126Y193387D01*
X499074Y192202D01*
X497398Y190526D01*
X496213Y188474D01*
X495600Y186185D01*
Y183815D01*
X496213Y181526D01*
X497398Y179474D01*
X499074Y177798D01*
X501126Y176614D01*
X503415Y176000D01*
X505785D01*
X508074Y176614D01*
X510126Y177798D01*
X511802Y179474D01*
X512987Y181526D01*
X513600Y183815D01*
Y186185D01*
X512987Y188474D01*
X511802Y190526D01*
X510126Y192202D01*
X508074Y193387D01*
X505785Y194000D01*
D02*
G37*
G36*
X51185D02*
X48815D01*
X46526Y193387D01*
X44474Y192202D01*
X42798Y190526D01*
X41613Y188474D01*
X41000Y186185D01*
Y183815D01*
X41613Y181526D01*
X42798Y179474D01*
X44474Y177798D01*
X46526Y176614D01*
X48815Y176000D01*
X51185D01*
X53474Y176614D01*
X55526Y177798D01*
X57202Y179474D01*
X58387Y181526D01*
X59000Y183815D01*
Y186185D01*
X58387Y188474D01*
X57202Y190526D01*
X55526Y192202D01*
X53474Y193387D01*
X51185Y194000D01*
D02*
G37*
G36*
X318730Y169277D02*
X316414Y168657D01*
X314296Y167434D01*
X312566Y165704D01*
X311343Y163586D01*
X310723Y161270D01*
X318730D01*
Y169277D01*
D02*
G37*
G36*
Y158730D02*
X310723D01*
X311343Y156414D01*
X312566Y154296D01*
X314296Y152566D01*
X316414Y151343D01*
X318730Y150723D01*
Y158730D01*
D02*
G37*
G36*
X238730Y129929D02*
X237145Y129273D01*
X235727Y127855D01*
X235601Y127549D01*
X214399D01*
X214273Y127855D01*
X212855Y129273D01*
X211270Y129929D01*
Y125000D01*
Y120071D01*
X212855Y120727D01*
X214273Y122145D01*
X214399Y122451D01*
X235601D01*
X235727Y122145D01*
X237145Y120727D01*
X238730Y120071D01*
Y125000D01*
Y129929D01*
D02*
G37*
G36*
X241270D02*
Y126270D01*
X244929D01*
X244273Y127855D01*
X242855Y129273D01*
X241270Y129929D01*
D02*
G37*
G36*
X244929Y123730D02*
X241270D01*
Y120071D01*
X242855Y120727D01*
X244273Y122145D01*
X244929Y123730D01*
D02*
G37*
G36*
X377000Y112000D02*
X363000D01*
Y98000D01*
X377000D01*
Y112000D01*
D02*
G37*
G36*
X188730Y89990D02*
X179610D01*
Y80870D01*
X188730D01*
Y89990D01*
D02*
G37*
G36*
X419219Y285400D02*
X416981D01*
X414819Y284821D01*
X412881Y283702D01*
X411298Y282119D01*
X410179Y280181D01*
X409600Y278019D01*
Y275781D01*
X410179Y273619D01*
X411298Y271681D01*
X412881Y270098D01*
X414819Y268979D01*
X416981Y268400D01*
X419219D01*
X421381Y268979D01*
X422494Y269622D01*
X459211Y232905D01*
Y128350D01*
X459366Y127570D01*
X459808Y126908D01*
X496956Y89760D01*
X496213Y88474D01*
X495600Y86185D01*
Y83815D01*
X496213Y81526D01*
X497398Y79474D01*
X499074Y77798D01*
X501126Y76613D01*
X503415Y76000D01*
X505785D01*
X508074Y76613D01*
X510126Y77798D01*
X511802Y79474D01*
X512987Y81526D01*
X513600Y83815D01*
Y86185D01*
X512987Y88474D01*
X511802Y90526D01*
X510126Y92202D01*
X508074Y93386D01*
X505785Y94000D01*
X503415D01*
X501126Y93386D01*
X499840Y92644D01*
X463289Y129195D01*
Y233750D01*
X463134Y234530D01*
X462692Y235192D01*
X462692Y235192D01*
X425378Y272506D01*
X426021Y273619D01*
X426600Y275781D01*
Y278019D01*
X426021Y280181D01*
X424902Y282119D01*
X423319Y283702D01*
X421381Y284821D01*
X419219Y285400D01*
D02*
G37*
G36*
X76585Y504000D02*
X74215D01*
X71926Y503387D01*
X69874Y502202D01*
X68198Y500526D01*
X67014Y498474D01*
X66400Y496185D01*
Y493815D01*
X67014Y491526D01*
X68198Y489474D01*
X69874Y487798D01*
X71926Y486613D01*
X73361Y486229D01*
Y446981D01*
X71258Y444878D01*
X70816Y444216D01*
X70661Y443436D01*
Y403771D01*
X69226Y403387D01*
X67174Y402202D01*
X65498Y400526D01*
X64314Y398474D01*
X63700Y396185D01*
Y393815D01*
X64314Y391526D01*
X65498Y389474D01*
X67174Y387799D01*
X69226Y386614D01*
X70661Y386229D01*
Y341234D01*
X70816Y340454D01*
X71258Y339792D01*
X73361Y337689D01*
Y293771D01*
X71926Y293387D01*
X69874Y292202D01*
X68198Y290526D01*
X67014Y288474D01*
X66400Y286185D01*
Y283815D01*
X67014Y281526D01*
X68198Y279474D01*
X69874Y277798D01*
X71926Y276613D01*
X73361Y276229D01*
Y193771D01*
X71926Y193387D01*
X69874Y192202D01*
X68198Y190526D01*
X67014Y188474D01*
X66400Y186185D01*
Y183815D01*
X67014Y181526D01*
X68198Y179474D01*
X69874Y177798D01*
X71926Y176614D01*
X73361Y176229D01*
Y93771D01*
X71926Y93386D01*
X69874Y92202D01*
X68198Y90526D01*
X67014Y88474D01*
X66400Y86185D01*
Y83815D01*
X67014Y81526D01*
X68198Y79474D01*
X69874Y77798D01*
X71926Y76613D01*
X74215Y76000D01*
X76585D01*
X78874Y76613D01*
X80926Y77798D01*
X82602Y79474D01*
X83787Y81526D01*
X84400Y83815D01*
Y86185D01*
X83787Y88474D01*
X82602Y90526D01*
X80926Y92202D01*
X78874Y93386D01*
X77439Y93771D01*
Y176229D01*
X78874Y176614D01*
X80926Y177798D01*
X82602Y179474D01*
X83787Y181526D01*
X84400Y183815D01*
Y186185D01*
X83787Y188474D01*
X82602Y190526D01*
X80926Y192202D01*
X78874Y193387D01*
X77439Y193771D01*
Y276229D01*
X78874Y276613D01*
X80926Y277798D01*
X82602Y279474D01*
X83787Y281526D01*
X84400Y283815D01*
Y286185D01*
X83787Y288474D01*
X82602Y290526D01*
X80926Y292202D01*
X78874Y293387D01*
X77439Y293771D01*
Y338534D01*
X77439Y338534D01*
X77284Y339314D01*
X76842Y339976D01*
X74739Y342079D01*
Y386229D01*
X76174Y386614D01*
X78226Y387799D01*
X79902Y389474D01*
X81087Y391526D01*
X81700Y393815D01*
Y396185D01*
X81087Y398474D01*
X79902Y400526D01*
X78226Y402202D01*
X76174Y403387D01*
X74739Y403771D01*
Y442591D01*
X76842Y444694D01*
X77284Y445356D01*
X77439Y446136D01*
X77439Y446136D01*
Y486229D01*
X78874Y486613D01*
X80926Y487798D01*
X82602Y489474D01*
X83787Y491526D01*
X84400Y493815D01*
Y496185D01*
X83787Y498474D01*
X82602Y500526D01*
X80926Y502202D01*
X78874Y503387D01*
X76585Y504000D01*
D02*
G37*
G36*
X51185Y94000D02*
X48815D01*
X46526Y93386D01*
X44474Y92202D01*
X42798Y90526D01*
X41613Y88474D01*
X41000Y86185D01*
Y83815D01*
X41613Y81526D01*
X42798Y79474D01*
X44474Y77798D01*
X46526Y76613D01*
X48815Y76000D01*
X51185D01*
X53474Y76613D01*
X55526Y77798D01*
X57202Y79474D01*
X58387Y81526D01*
X59000Y83815D01*
Y86185D01*
X58387Y88474D01*
X57202Y90526D01*
X55526Y92202D01*
X53474Y93386D01*
X51185Y94000D01*
D02*
G37*
G36*
X200390Y78330D02*
X191270D01*
Y69210D01*
X200390D01*
Y78330D01*
D02*
G37*
G36*
X188730D02*
X179610D01*
Y69210D01*
X188730D01*
Y78330D01*
D02*
G37*
G36*
X261021Y73750D02*
X258980D01*
X257009Y73222D01*
X255242Y72202D01*
X253799Y70759D01*
X252778Y68991D01*
X252250Y67021D01*
Y64980D01*
X252778Y63009D01*
X253799Y61241D01*
X255242Y59799D01*
X257009Y58778D01*
X258980Y58250D01*
X261021D01*
X262992Y58778D01*
X264759Y59799D01*
X266202Y61241D01*
X267222Y63009D01*
X267750Y64980D01*
Y67021D01*
X267222Y68991D01*
X266202Y70759D01*
X264759Y72202D01*
X262992Y73222D01*
X261021Y73750D01*
D02*
G37*
%LPD*%
D10*
X254000Y115000D02*
Y137485D01*
Y115000D02*
X313168Y55832D01*
X254000Y137485D02*
X260000Y143485D01*
Y164000D01*
X313168Y55832D02*
X326376D01*
X330440Y59896D01*
Y283416D01*
X268100Y327700D02*
X289800Y349400D01*
Y413464D01*
X330440Y454104D01*
X390638D01*
X410000Y475000D01*
X381000Y486500D02*
X398500D01*
X410000Y475000D01*
X260000D02*
X271500Y463500D01*
X381000D01*
X75400Y185000D02*
Y285000D01*
Y85000D02*
Y185000D01*
Y285000D02*
Y338534D01*
X72700Y341234D02*
X75400Y338534D01*
X72700Y341234D02*
Y395000D01*
Y443436D01*
X75400Y446136D01*
Y495000D01*
X530000Y395000D02*
Y495000D01*
Y295000D02*
Y395000D01*
Y185000D02*
Y295000D01*
Y85000D02*
Y185000D01*
X341900Y378500D02*
X458400Y495000D01*
X504600D01*
X297420Y196548D02*
X305548Y204676D01*
Y265948D01*
X341900Y302300D01*
X418100Y276900D02*
X461250Y233750D01*
Y128350D02*
Y233750D01*
Y128350D02*
X504600Y85000D01*
X268100Y302300D02*
Y327700D01*
Y302300D02*
X290054Y280346D01*
Y99946D02*
Y280346D01*
Y99946D02*
X320000Y70000D01*
X260000Y164000D02*
Y234200D01*
X191900Y302300D02*
X260000Y234200D01*
X330440Y283416D02*
X336536Y289512D01*
X354512D01*
X418100Y353100D01*
D15*
X410000Y475000D02*
D03*
D16*
X381000Y463500D02*
D03*
Y486500D02*
D03*
D25*
X190000Y105000D02*
D03*
D26*
Y79600D02*
D03*
D27*
X420000Y105000D02*
D03*
X310000Y475000D02*
D03*
D28*
X370000Y105000D02*
D03*
X260000Y475000D02*
D03*
D30*
X174900Y336100D02*
X191900Y353100D01*
X190000Y390472D02*
Y426000D01*
Y390472D02*
X191900Y388572D01*
Y353100D02*
Y388572D01*
X210000Y125000D02*
X240000D01*
X174900Y120100D02*
X190000Y105000D01*
X174900Y120100D02*
Y336100D01*
X420000Y105000D02*
Y148000D01*
X341900Y226100D02*
X420000Y148000D01*
X341900Y226100D02*
X406386Y290586D01*
Y315986D01*
X418100Y327700D01*
X429754Y339354D01*
Y366846D01*
X418100Y378500D02*
X429754Y366846D01*
X190000Y79600D02*
X201916Y91516D01*
Y266884D01*
X191900Y276900D02*
X201916Y266884D01*
X180400Y288400D02*
X191900Y276900D01*
X180400Y288400D02*
Y307800D01*
X186400Y313800D01*
X228800D01*
X268100Y353100D01*
D31*
X191900D02*
D03*
X341900Y403900D02*
D03*
D32*
X191900Y327700D02*
D03*
Y302300D02*
D03*
Y276900D02*
D03*
X268100Y353100D02*
D03*
Y327700D02*
D03*
Y302300D02*
D03*
Y276900D02*
D03*
X418100Y226100D02*
D03*
Y251500D02*
D03*
Y276900D02*
D03*
Y302300D02*
D03*
Y327700D02*
D03*
Y353100D02*
D03*
Y378500D02*
D03*
Y403900D02*
D03*
X341900Y226100D02*
D03*
Y251500D02*
D03*
Y276900D02*
D03*
Y302300D02*
D03*
Y327700D02*
D03*
Y353100D02*
D03*
Y378500D02*
D03*
D33*
X75400Y495000D02*
D03*
X50000D02*
D03*
X47300Y395000D02*
D03*
X72700D02*
D03*
X530000Y185000D02*
D03*
X504600D02*
D03*
X530000Y295000D02*
D03*
X504600D02*
D03*
X530000Y395000D02*
D03*
X504600D02*
D03*
X530000Y495000D02*
D03*
X504600D02*
D03*
X530000Y85000D02*
D03*
X504600D02*
D03*
X75400D02*
D03*
X50000D02*
D03*
X75400Y185000D02*
D03*
X50000D02*
D03*
X75400Y285000D02*
D03*
X50000D02*
D03*
D34*
X290000Y20000D02*
D03*
X515000Y560000D02*
D03*
X60000D02*
D03*
D35*
X190000Y426000D02*
D03*
X260000Y164000D02*
D03*
Y66000D02*
D03*
X320000Y160000D02*
D03*
D36*
Y70000D02*
D03*
D37*
X240000Y125000D02*
D03*
X210000D02*
D03*
X297420Y196548D02*
D03*
M02*
