G04*
G04 #@! TF.GenerationSoftware,Altium Limited,Altium Designer,22.7.1 (60)*
G04*
G04 Layer_Color=32768*
%FSLAX44Y44*%
%MOMM*%
G71*
G04*
G04 #@! TF.SameCoordinates,29AA5E4F-6587-4ACD-81CD-572689CA6415*
G04*
G04*
G04 #@! TF.FilePolarity,Positive*
G04*
G01*
G75*
%ADD10C,0.2000*%
%ADD14C,0.1524*%
%ADD39C,0.1000*%
%ADD40C,0.0500*%
D10*
X89370Y512780D02*
G03*
X88865Y476540I-26526J-17754D01*
G01*
X86670Y412780D02*
G03*
X86165Y376540I-26526J-17754D01*
G01*
X543970Y202780D02*
G03*
X543465Y166540I-26526J-17754D01*
G01*
X543970Y312780D02*
G03*
X543465Y276540I-26526J-17754D01*
G01*
X543970Y412780D02*
G03*
X543465Y376540I-26526J-17754D01*
G01*
X543970Y512780D02*
G03*
X543465Y476540I-26526J-17754D01*
G01*
X543970Y102780D02*
G03*
X543465Y66540I-26526J-17754D01*
G01*
X89370Y102780D02*
G03*
X88865Y66540I-26526J-17754D01*
G01*
X89370Y202780D02*
G03*
X88865Y166540I-26526J-17754D01*
G01*
X89370Y302780D02*
G03*
X88865Y266540I-26526J-17754D01*
G01*
X89370Y477220D02*
Y512780D01*
X60160Y495000D02*
X65240D01*
X62700Y492460D02*
Y497540D01*
X60000Y392460D02*
Y397540D01*
X57460Y395000D02*
X62540D01*
X86670Y377220D02*
Y412780D01*
X543970Y167220D02*
Y202780D01*
X514760Y185000D02*
X519840D01*
X517300Y182460D02*
Y187540D01*
X543970Y277220D02*
Y312780D01*
X514760Y295000D02*
X519840D01*
X517300Y292460D02*
Y297540D01*
X543970Y377220D02*
Y412780D01*
X514760Y395000D02*
X519840D01*
X517300Y392460D02*
Y397540D01*
X543970Y477220D02*
Y512780D01*
X514760Y495000D02*
X519840D01*
X517300Y492460D02*
Y497540D01*
X175800Y63400D02*
X204200D01*
Y121200D01*
X175800D02*
X204200D01*
X175800Y63400D02*
Y121200D01*
X363000Y84000D02*
Y126000D01*
Y84000D02*
X427000D01*
Y126000D01*
X363000D02*
X427000D01*
X253000Y454000D02*
Y496000D01*
Y454000D02*
X317000D01*
Y496000D01*
X253000D02*
X317000D01*
X543970Y67220D02*
Y102780D01*
X514760Y85000D02*
X519840D01*
X517300Y82460D02*
Y87540D01*
X89370Y67220D02*
Y102780D01*
X60160Y85000D02*
X65240D01*
X62700Y82460D02*
Y87540D01*
X89370Y167220D02*
Y202780D01*
X60160Y185000D02*
X65240D01*
X62700Y182460D02*
Y187540D01*
X89370Y267220D02*
Y302780D01*
X60160Y285000D02*
X65240D01*
X62700Y282460D02*
Y287540D01*
D14*
X62700Y502618D02*
Y495000D01*
X67778D01*
X75396Y502618D02*
X70318D01*
Y495000D01*
X75396D01*
X70318Y498809D02*
X72857D01*
X77935Y502618D02*
Y495000D01*
X81744D01*
X83013Y496270D01*
Y501348D01*
X81744Y502618D01*
X77935D01*
X85553Y495000D02*
X88092D01*
X86822D01*
Y502618D01*
X85553Y501348D01*
X91901Y495000D02*
X94440D01*
X93170D01*
Y502618D01*
X91901Y501348D01*
X93180Y498808D02*
Y491190D01*
Y493729D01*
X98258Y498808D01*
X94450Y494999D01*
X98258Y491190D01*
X90480Y398808D02*
Y391190D01*
Y393729D01*
X95558Y398808D01*
X91750Y394999D01*
X95558Y391190D01*
X60000Y402618D02*
Y395000D01*
X65078D01*
X72696Y402618D02*
X67618D01*
Y395000D01*
X72696D01*
X67618Y398809D02*
X70157D01*
X75235Y402618D02*
Y395000D01*
X79044D01*
X80313Y396270D01*
Y401348D01*
X79044Y402618D01*
X75235D01*
X82853Y401348D02*
X84122Y402618D01*
X86661D01*
X87931Y401348D01*
Y400078D01*
X86661Y398809D01*
X85392D01*
X86661D01*
X87931Y397539D01*
Y396270D01*
X86661Y395000D01*
X84122D01*
X82853Y396270D01*
X90470Y401348D02*
X91740Y402618D01*
X94279D01*
X95548Y401348D01*
Y400078D01*
X94279Y398809D01*
X93009D01*
X94279D01*
X95548Y397539D01*
Y396270D01*
X94279Y395000D01*
X91740D01*
X90470Y396270D01*
X517300Y192617D02*
Y185000D01*
X522378D01*
X529996Y192617D02*
X524917D01*
Y185000D01*
X529996D01*
X524917Y188809D02*
X527457D01*
X532535Y192617D02*
Y185000D01*
X536344D01*
X537613Y186270D01*
Y191348D01*
X536344Y192617D01*
X532535D01*
X540153Y191348D02*
X541422Y192617D01*
X543961D01*
X545231Y191348D01*
Y190078D01*
X543961Y188809D01*
X545231Y187539D01*
Y186270D01*
X543961Y185000D01*
X541422D01*
X540153Y186270D01*
Y187539D01*
X541422Y188809D01*
X540153Y190078D01*
Y191348D01*
X541422Y188809D02*
X543961D01*
X547770Y191348D02*
X549040Y192617D01*
X551579D01*
X552849Y191348D01*
Y190078D01*
X551579Y188809D01*
X552849Y187539D01*
Y186270D01*
X551579Y185000D01*
X549040D01*
X547770Y186270D01*
Y187539D01*
X549040Y188809D01*
X547770Y190078D01*
Y191348D01*
X549040Y188809D02*
X551579D01*
X547780Y188808D02*
Y181190D01*
Y183729D01*
X552858Y188808D01*
X549050Y184999D01*
X552858Y181190D01*
X517300Y302618D02*
Y295000D01*
X522378D01*
X529996Y302618D02*
X524917D01*
Y295000D01*
X529996D01*
X524917Y298809D02*
X527457D01*
X532535Y302618D02*
Y295000D01*
X536344D01*
X537613Y296270D01*
Y301348D01*
X536344Y302618D01*
X532535D01*
X545231D02*
X542692Y301348D01*
X540153Y298809D01*
Y296270D01*
X541422Y295000D01*
X543961D01*
X545231Y296270D01*
Y297539D01*
X543961Y298809D01*
X540153D01*
X552849Y302618D02*
X550309Y301348D01*
X547770Y298809D01*
Y296270D01*
X549040Y295000D01*
X551579D01*
X552849Y296270D01*
Y297539D01*
X551579Y298809D01*
X547770D01*
X547780Y298808D02*
Y291190D01*
Y293729D01*
X552858Y298808D01*
X549050Y294999D01*
X552858Y291190D01*
X517300Y402618D02*
Y395000D01*
X522378D01*
X529996Y402618D02*
X524917D01*
Y395000D01*
X529996D01*
X524917Y398809D02*
X527457D01*
X532535Y402618D02*
Y395000D01*
X536344D01*
X537613Y396270D01*
Y401348D01*
X536344Y402618D01*
X532535D01*
X543961Y395000D02*
Y402618D01*
X540153Y398809D01*
X545231D01*
X551579Y395000D02*
Y402618D01*
X547770Y398809D01*
X552849D01*
X547780Y398808D02*
Y391190D01*
Y393729D01*
X552858Y398808D01*
X549050Y394999D01*
X552858Y391190D01*
X370110Y326318D02*
Y318700D01*
X375188D01*
X382806Y326318D02*
X377728D01*
Y318700D01*
X382806D01*
X377728Y322509D02*
X380267D01*
X385345Y326318D02*
Y318700D01*
X389154D01*
X390423Y319970D01*
Y325048D01*
X389154Y326318D01*
X385345D01*
X398041Y318700D02*
X392963D01*
X398041Y323778D01*
Y325048D01*
X396771Y326318D01*
X394232D01*
X392963Y325048D01*
X405658Y318700D02*
X400580D01*
X405658Y323778D01*
Y325048D01*
X404389Y326318D01*
X401850D01*
X400580Y325048D01*
X547780Y498808D02*
Y491190D01*
Y493729D01*
X552858Y498808D01*
X549050Y494999D01*
X552858Y491190D01*
X517300Y92618D02*
Y85000D01*
X522378D01*
X529996Y92618D02*
X524917D01*
Y85000D01*
X529996D01*
X524917Y88809D02*
X527457D01*
X532535Y92618D02*
Y85000D01*
X536344D01*
X537613Y86270D01*
Y91348D01*
X536344Y92618D01*
X532535D01*
X540153Y85000D02*
X542692D01*
X541422D01*
Y92618D01*
X540153Y91348D01*
X546501D02*
X547770Y92618D01*
X550309D01*
X551579Y91348D01*
Y86270D01*
X550309Y85000D01*
X547770D01*
X546501Y86270D01*
Y91348D01*
X554118D02*
X555388Y92618D01*
X557927D01*
X559196Y91348D01*
Y86270D01*
X557927Y85000D01*
X555388D01*
X554118Y86270D01*
Y91348D01*
X547780Y88807D02*
Y81190D01*
Y83729D01*
X552858Y88807D01*
X549050Y84999D01*
X552858Y81190D01*
X62700Y92618D02*
Y85000D01*
X67778D01*
X75396Y92618D02*
X70318D01*
Y85000D01*
X75396D01*
X70318Y88809D02*
X72857D01*
X77935Y92618D02*
Y85000D01*
X81744D01*
X83013Y86270D01*
Y91348D01*
X81744Y92618D01*
X77935D01*
X85553Y86270D02*
X86822Y85000D01*
X89361D01*
X90631Y86270D01*
Y91348D01*
X89361Y92618D01*
X86822D01*
X85553Y91348D01*
Y90078D01*
X86822Y88809D01*
X90631D01*
X93170Y86270D02*
X94440Y85000D01*
X96979D01*
X98249Y86270D01*
Y91348D01*
X96979Y92618D01*
X94440D01*
X93170Y91348D01*
Y90078D01*
X94440Y88809D01*
X98249D01*
X93180Y88807D02*
Y81190D01*
Y83729D01*
X98258Y88807D01*
X94450Y84999D01*
X98258Y81190D01*
X62700Y192617D02*
Y185000D01*
X67778D01*
X75396Y192617D02*
X70318D01*
Y185000D01*
X75396D01*
X70318Y188809D02*
X72857D01*
X77935Y192617D02*
Y185000D01*
X81744D01*
X83013Y186270D01*
Y191348D01*
X81744Y192617D01*
X77935D01*
X85553D02*
X90631D01*
Y191348D01*
X85553Y186270D01*
Y185000D01*
X93170Y192617D02*
X98249D01*
Y191348D01*
X93170Y186270D01*
Y185000D01*
X93180Y188808D02*
Y181190D01*
Y183729D01*
X98258Y188808D01*
X94450Y184999D01*
X98258Y181190D01*
X62700Y292618D02*
Y285000D01*
X67778D01*
X75396Y292618D02*
X70318D01*
Y285000D01*
X75396D01*
X70318Y288809D02*
X72857D01*
X77935Y292618D02*
Y285000D01*
X81744D01*
X83013Y286270D01*
Y291348D01*
X81744Y292618D01*
X77935D01*
X90631D02*
X85553D01*
Y288809D01*
X88092Y290078D01*
X89361D01*
X90631Y288809D01*
Y286270D01*
X89361Y285000D01*
X86822D01*
X85553Y286270D01*
X98249Y292618D02*
X93170D01*
Y288809D01*
X95709Y290078D01*
X96979D01*
X98249Y288809D01*
Y286270D01*
X96979Y285000D01*
X94440D01*
X93170Y286270D01*
X93180Y288808D02*
Y281190D01*
Y283729D01*
X98258Y288808D01*
X94450Y284999D01*
X98258Y281190D01*
D39*
X225000Y315000D02*
X235000D01*
X230000Y310000D02*
Y320000D01*
X190000Y470000D02*
Y480000D01*
X185000Y475000D02*
X195000D01*
X380000Y310000D02*
Y320000D01*
X375000Y315000D02*
X385000D01*
X255000Y115000D02*
X265000D01*
X260000Y110000D02*
Y120000D01*
X390500Y475000D02*
X400500D01*
X395500Y470000D02*
Y480000D01*
X315000Y115000D02*
X325000D01*
X320000Y110000D02*
Y120000D01*
D40*
X181500Y261500D02*
Y368500D01*
X278500Y261500D02*
Y368500D01*
X181500D02*
X278500D01*
X181500Y261500D02*
X278500D01*
X176500Y418250D02*
Y531750D01*
X203500D01*
X176500Y418250D02*
X203500D01*
Y531750D01*
X331500Y214000D02*
X428500D01*
X331500Y416000D02*
X428500D01*
Y214000D02*
Y416000D01*
X331500Y214000D02*
Y416000D01*
X273500Y58250D02*
Y171750D01*
X246500Y58250D02*
X273500D01*
X246500Y171750D02*
X273500D01*
X246500Y58250D02*
Y171750D01*
X372000Y457000D02*
X419000D01*
X372000D02*
Y493000D01*
X419000D01*
Y457000D02*
Y493000D01*
X307000Y167750D02*
X333000D01*
X307000Y62250D02*
Y167750D01*
X333000Y62250D02*
Y167750D01*
X307000Y62250D02*
X333000D01*
M02*
