G04*
G04 #@! TF.GenerationSoftware,Altium Limited,Altium Designer,22.7.1 (60)*
G04*
G04 Layer_Color=16711935*
%FSLAX44Y44*%
%MOMM*%
G71*
G04*
G04 #@! TF.SameCoordinates,29AA5E4F-6587-4ACD-81CD-572689CA6415*
G04*
G04*
G04 #@! TF.FilePolarity,Positive*
G04*
G01*
G75*
%ADD10C,0.2000*%
G36*
X189889Y99058D02*
X184887D01*
X184897Y99049D01*
X184933Y99003D01*
X184989Y98947D01*
X185054Y98855D01*
X185137Y98753D01*
X185229Y98624D01*
X185331Y98476D01*
X185433Y98309D01*
Y98300D01*
X185442Y98291D01*
X185479Y98236D01*
X185525Y98143D01*
X185581Y98032D01*
X185645Y97903D01*
X185710Y97764D01*
X185775Y97625D01*
X185830Y97487D01*
X185072D01*
Y97496D01*
X185054Y97514D01*
X185044Y97551D01*
X185017Y97598D01*
X184989Y97653D01*
X184952Y97718D01*
X184860Y97875D01*
X184758Y98060D01*
X184628Y98245D01*
X184480Y98439D01*
X184323Y98633D01*
X184314Y98642D01*
X184305Y98652D01*
X184277Y98679D01*
X184249Y98716D01*
X184157Y98799D01*
X184046Y98911D01*
X183916Y99021D01*
X183769Y99142D01*
X183621Y99243D01*
X183463Y99336D01*
Y99844D01*
X189889D01*
Y99058D01*
D02*
G37*
G36*
X188058Y95813D02*
X188132D01*
X188308Y95795D01*
X188512Y95776D01*
X188724Y95739D01*
X188918Y95684D01*
X189103Y95619D01*
X189112D01*
X189122Y95610D01*
X189177Y95582D01*
X189251Y95536D01*
X189353Y95471D01*
X189455Y95379D01*
X189566Y95277D01*
X189676Y95147D01*
X189769Y95000D01*
X189778Y94981D01*
X189806Y94926D01*
X189843Y94842D01*
X189880Y94722D01*
X189926Y94574D01*
X189963Y94408D01*
X189991Y94223D01*
X190000Y94020D01*
Y93936D01*
X189991Y93881D01*
X189982Y93807D01*
X189972Y93733D01*
X189935Y93539D01*
X189880Y93335D01*
X189797Y93123D01*
X189741Y93012D01*
X189676Y92910D01*
X189603Y92818D01*
X189519Y92725D01*
X189510Y92716D01*
X189501Y92707D01*
X189464Y92688D01*
X189427Y92661D01*
X189381Y92624D01*
X189316Y92586D01*
X189242Y92549D01*
X189159Y92503D01*
X189066Y92466D01*
X188955Y92429D01*
X188844Y92392D01*
X188715Y92355D01*
X188576Y92337D01*
X188419Y92309D01*
X188262Y92300D01*
X188086D01*
X187975Y93067D01*
X187985D01*
X188003D01*
X188040D01*
X188095Y93076D01*
X188151Y93086D01*
X188216D01*
X188373Y93113D01*
X188539Y93141D01*
X188706Y93197D01*
X188854Y93252D01*
X188918Y93289D01*
X188974Y93335D01*
X188983Y93345D01*
X189011Y93382D01*
X189057Y93437D01*
X189103Y93511D01*
X189159Y93613D01*
X189196Y93724D01*
X189233Y93862D01*
X189242Y94010D01*
Y94066D01*
X189233Y94121D01*
X189223Y94205D01*
X189205Y94288D01*
X189186Y94380D01*
X189149Y94473D01*
X189103Y94565D01*
X189094Y94574D01*
X189076Y94602D01*
X189039Y94639D01*
X189002Y94694D01*
X188937Y94741D01*
X188872Y94796D01*
X188798Y94842D01*
X188706Y94879D01*
X188696D01*
X188659Y94898D01*
X188595Y94907D01*
X188512Y94926D01*
X188401Y94944D01*
X188262Y94953D01*
X188095Y94972D01*
X187901D01*
X183491D01*
Y95822D01*
X187855D01*
X187864D01*
X187892D01*
X187929D01*
X187985D01*
X188058Y95813D01*
D02*
G37*
G36*
X398171Y111610D02*
X398254Y111601D01*
X398356Y111592D01*
X398458Y111583D01*
X398578Y111555D01*
X398828Y111500D01*
X399105Y111416D01*
X399244Y111361D01*
X399373Y111296D01*
X399502Y111213D01*
X399632Y111130D01*
X399641Y111121D01*
X399660Y111111D01*
X399697Y111083D01*
X399743Y111037D01*
X399789Y110991D01*
X399854Y110926D01*
X399919Y110852D01*
X399992Y110778D01*
X400066Y110686D01*
X400140Y110575D01*
X400224Y110464D01*
X400298Y110344D01*
X400362Y110205D01*
X400436Y110066D01*
X400492Y109919D01*
X400547Y109752D01*
X399715Y109558D01*
Y109567D01*
X399706Y109586D01*
X399687Y109623D01*
X399669Y109669D01*
X399650Y109724D01*
X399623Y109798D01*
X399549Y109946D01*
X399456Y110113D01*
X399345Y110279D01*
X399207Y110436D01*
X399059Y110575D01*
X399040Y110594D01*
X398985Y110631D01*
X398892Y110677D01*
X398772Y110741D01*
X398615Y110797D01*
X398439Y110852D01*
X398227Y110889D01*
X397995Y110899D01*
X397921D01*
X397875Y110889D01*
X397811D01*
X397737Y110880D01*
X397561Y110852D01*
X397367Y110815D01*
X397163Y110751D01*
X396951Y110658D01*
X396757Y110538D01*
X396747D01*
X396738Y110520D01*
X396673Y110473D01*
X396590Y110399D01*
X396488Y110288D01*
X396368Y110150D01*
X396257Y109993D01*
X396156Y109798D01*
X396063Y109586D01*
Y109577D01*
X396054Y109558D01*
X396045Y109530D01*
X396035Y109484D01*
X396017Y109429D01*
X395998Y109364D01*
X395971Y109207D01*
X395934Y109022D01*
X395897Y108818D01*
X395878Y108596D01*
X395869Y108356D01*
Y108347D01*
Y108319D01*
Y108273D01*
Y108217D01*
X395878Y108153D01*
Y108069D01*
X395887Y107977D01*
X395897Y107875D01*
X395924Y107653D01*
X395971Y107413D01*
X396026Y107173D01*
X396100Y106932D01*
Y106923D01*
X396109Y106904D01*
X396128Y106877D01*
X396146Y106831D01*
X396202Y106720D01*
X396285Y106590D01*
X396387Y106442D01*
X396516Y106285D01*
X396664Y106146D01*
X396840Y106017D01*
X396849D01*
X396867Y106008D01*
X396895Y105989D01*
X396932Y105971D01*
X396978Y105952D01*
X397034Y105925D01*
X397163Y105869D01*
X397330Y105814D01*
X397515Y105767D01*
X397718Y105730D01*
X397931Y105721D01*
X397995D01*
X398051Y105730D01*
X398116D01*
X398180Y105739D01*
X398347Y105777D01*
X398541Y105823D01*
X398735Y105897D01*
X398938Y105998D01*
X399040Y106054D01*
X399133Y106128D01*
X399142Y106137D01*
X399151Y106146D01*
X399179Y106174D01*
X399216Y106202D01*
X399253Y106248D01*
X399299Y106304D01*
X399355Y106359D01*
X399401Y106433D01*
X399456Y106516D01*
X399521Y106609D01*
X399576Y106701D01*
X399632Y106812D01*
X399678Y106932D01*
X399724Y107062D01*
X399771Y107200D01*
X399808Y107348D01*
X400658Y107136D01*
Y107126D01*
X400649Y107089D01*
X400630Y107034D01*
X400603Y106960D01*
X400575Y106877D01*
X400538Y106775D01*
X400492Y106664D01*
X400436Y106544D01*
X400307Y106285D01*
X400140Y106026D01*
X400039Y105897D01*
X399937Y105767D01*
X399826Y105656D01*
X399697Y105545D01*
X399687Y105536D01*
X399669Y105518D01*
X399623Y105499D01*
X399576Y105462D01*
X399502Y105416D01*
X399428Y105370D01*
X399327Y105323D01*
X399225Y105277D01*
X399105Y105222D01*
X398975Y105176D01*
X398837Y105129D01*
X398689Y105083D01*
X398532Y105046D01*
X398365Y105028D01*
X398190Y105009D01*
X398005Y105000D01*
X397903D01*
X397829Y105009D01*
X397746D01*
X397644Y105018D01*
X397533Y105037D01*
X397404Y105055D01*
X397136Y105102D01*
X396858Y105176D01*
X396581Y105277D01*
X396451Y105342D01*
X396322Y105416D01*
X396313Y105425D01*
X396294Y105434D01*
X396257Y105462D01*
X396220Y105499D01*
X396165Y105536D01*
X396100Y105592D01*
X396026Y105656D01*
X395952Y105730D01*
X395878Y105814D01*
X395795Y105897D01*
X395629Y106109D01*
X395471Y106359D01*
X395333Y106636D01*
Y106646D01*
X395314Y106673D01*
X395305Y106720D01*
X395277Y106775D01*
X395259Y106849D01*
X395231Y106941D01*
X395194Y107043D01*
X395166Y107154D01*
X395139Y107274D01*
X395102Y107413D01*
X395055Y107700D01*
X395018Y108023D01*
X395000Y108356D01*
Y108365D01*
Y108402D01*
Y108458D01*
X395009Y108523D01*
Y108615D01*
X395018Y108707D01*
X395028Y108828D01*
X395046Y108948D01*
X395092Y109216D01*
X395157Y109512D01*
X395249Y109808D01*
X395379Y110094D01*
X395388Y110104D01*
X395397Y110131D01*
X395416Y110168D01*
X395453Y110214D01*
X395490Y110279D01*
X395536Y110353D01*
X395656Y110520D01*
X395813Y110704D01*
X395998Y110889D01*
X396211Y111074D01*
X396461Y111231D01*
X396470Y111241D01*
X396498Y111250D01*
X396535Y111268D01*
X396581Y111296D01*
X396655Y111324D01*
X396729Y111352D01*
X396821Y111389D01*
X396923Y111426D01*
X397034Y111463D01*
X397154Y111500D01*
X397413Y111555D01*
X397709Y111601D01*
X398014Y111620D01*
X398106D01*
X398171Y111610D01*
D02*
G37*
G36*
X403654Y111527D02*
X403728Y111518D01*
X403820Y111509D01*
X403922Y111490D01*
X404024Y111472D01*
X404264Y111407D01*
X404504Y111315D01*
X404624Y111259D01*
X404745Y111194D01*
X404856Y111111D01*
X404957Y111019D01*
X404967Y111010D01*
X404985Y111000D01*
X405004Y110963D01*
X405041Y110926D01*
X405087Y110880D01*
X405133Y110815D01*
X405179Y110751D01*
X405235Y110667D01*
X405327Y110492D01*
X405420Y110270D01*
X405457Y110159D01*
X405475Y110029D01*
X405494Y109900D01*
X405503Y109761D01*
Y109743D01*
Y109697D01*
X405494Y109623D01*
X405484Y109521D01*
X405466Y109410D01*
X405429Y109281D01*
X405392Y109142D01*
X405336Y109003D01*
X405327Y108985D01*
X405309Y108939D01*
X405272Y108865D01*
X405216Y108763D01*
X405142Y108652D01*
X405050Y108513D01*
X404939Y108375D01*
X404809Y108217D01*
X404791Y108199D01*
X404745Y108143D01*
X404698Y108097D01*
X404652Y108051D01*
X404597Y107996D01*
X404523Y107921D01*
X404449Y107847D01*
X404356Y107764D01*
X404264Y107672D01*
X404153Y107570D01*
X404033Y107469D01*
X403903Y107348D01*
X403755Y107228D01*
X403607Y107099D01*
X403598Y107089D01*
X403580Y107071D01*
X403543Y107043D01*
X403497Y107006D01*
X403441Y106951D01*
X403376Y106895D01*
X403228Y106775D01*
X403071Y106636D01*
X402923Y106498D01*
X402794Y106377D01*
X402738Y106331D01*
X402692Y106285D01*
X402683Y106276D01*
X402655Y106248D01*
X402618Y106211D01*
X402572Y106156D01*
X402526Y106091D01*
X402470Y106026D01*
X402359Y105869D01*
X405512D01*
Y105111D01*
X401268D01*
Y105120D01*
Y105157D01*
Y105212D01*
X401278Y105287D01*
X401287Y105370D01*
X401305Y105462D01*
X401324Y105555D01*
X401361Y105656D01*
Y105666D01*
X401370Y105675D01*
X401389Y105730D01*
X401426Y105814D01*
X401481Y105925D01*
X401555Y106054D01*
X401647Y106202D01*
X401749Y106350D01*
X401879Y106507D01*
Y106516D01*
X401897Y106525D01*
X401943Y106581D01*
X402026Y106664D01*
X402147Y106784D01*
X402285Y106923D01*
X402461Y107089D01*
X402674Y107274D01*
X402905Y107469D01*
X402914Y107478D01*
X402951Y107505D01*
X403007Y107552D01*
X403071Y107607D01*
X403154Y107681D01*
X403256Y107764D01*
X403358Y107857D01*
X403478Y107958D01*
X403709Y108180D01*
X403940Y108402D01*
X404051Y108513D01*
X404153Y108624D01*
X404245Y108726D01*
X404319Y108828D01*
Y108837D01*
X404338Y108846D01*
X404356Y108874D01*
X404375Y108911D01*
X404440Y109012D01*
X404514Y109133D01*
X404578Y109281D01*
X404643Y109438D01*
X404680Y109613D01*
X404698Y109780D01*
Y109789D01*
Y109798D01*
X404689Y109854D01*
X404680Y109946D01*
X404652Y110048D01*
X404615Y110177D01*
X404551Y110307D01*
X404467Y110436D01*
X404356Y110566D01*
X404338Y110584D01*
X404292Y110621D01*
X404227Y110667D01*
X404125Y110732D01*
X403996Y110788D01*
X403848Y110843D01*
X403672Y110880D01*
X403478Y110889D01*
X403423D01*
X403386Y110880D01*
X403275Y110871D01*
X403145Y110843D01*
X403007Y110806D01*
X402849Y110741D01*
X402701Y110658D01*
X402563Y110547D01*
X402544Y110529D01*
X402507Y110483D01*
X402452Y110409D01*
X402396Y110298D01*
X402332Y110168D01*
X402276Y110002D01*
X402239Y109817D01*
X402221Y109604D01*
X401416Y109687D01*
Y109697D01*
X401426Y109724D01*
Y109771D01*
X401435Y109835D01*
X401453Y109909D01*
X401472Y109993D01*
X401499Y110094D01*
X401527Y110196D01*
X401601Y110418D01*
X401712Y110640D01*
X401777Y110751D01*
X401860Y110862D01*
X401943Y110963D01*
X402036Y111056D01*
X402045Y111065D01*
X402063Y111074D01*
X402091Y111102D01*
X402137Y111130D01*
X402193Y111167D01*
X402258Y111204D01*
X402332Y111250D01*
X402424Y111296D01*
X402526Y111342D01*
X402637Y111389D01*
X402757Y111426D01*
X402886Y111463D01*
X403025Y111490D01*
X403173Y111518D01*
X403330Y111527D01*
X403497Y111537D01*
X403589D01*
X403654Y111527D01*
D02*
G37*
G36*
X288171Y481610D02*
X288254Y481601D01*
X288356Y481592D01*
X288458Y481583D01*
X288578Y481555D01*
X288828Y481499D01*
X289105Y481416D01*
X289244Y481361D01*
X289373Y481296D01*
X289503Y481213D01*
X289632Y481130D01*
X289641Y481120D01*
X289660Y481111D01*
X289697Y481083D01*
X289743Y481037D01*
X289789Y480991D01*
X289854Y480926D01*
X289918Y480852D01*
X289993Y480778D01*
X290067Y480686D01*
X290140Y480575D01*
X290224Y480464D01*
X290298Y480344D01*
X290362Y480205D01*
X290436Y480066D01*
X290492Y479919D01*
X290547Y479752D01*
X289715Y479558D01*
Y479567D01*
X289706Y479586D01*
X289687Y479623D01*
X289669Y479669D01*
X289650Y479724D01*
X289623Y479798D01*
X289549Y479946D01*
X289456Y480113D01*
X289345Y480279D01*
X289207Y480436D01*
X289059Y480575D01*
X289040Y480593D01*
X288985Y480630D01*
X288892Y480677D01*
X288772Y480741D01*
X288615Y480797D01*
X288439Y480852D01*
X288227Y480889D01*
X287995Y480899D01*
X287922D01*
X287875Y480889D01*
X287810D01*
X287737Y480880D01*
X287561Y480852D01*
X287367Y480815D01*
X287163Y480751D01*
X286951Y480658D01*
X286757Y480538D01*
X286747D01*
X286738Y480519D01*
X286673Y480473D01*
X286590Y480399D01*
X286488Y480288D01*
X286368Y480150D01*
X286257Y479992D01*
X286156Y479798D01*
X286063Y479586D01*
Y479576D01*
X286054Y479558D01*
X286045Y479530D01*
X286035Y479484D01*
X286017Y479428D01*
X285998Y479364D01*
X285971Y479207D01*
X285934Y479022D01*
X285897Y478818D01*
X285878Y478596D01*
X285869Y478356D01*
Y478347D01*
Y478319D01*
Y478273D01*
Y478217D01*
X285878Y478153D01*
Y478069D01*
X285888Y477977D01*
X285897Y477875D01*
X285924Y477653D01*
X285971Y477413D01*
X286026Y477173D01*
X286100Y476932D01*
Y476923D01*
X286109Y476904D01*
X286128Y476877D01*
X286146Y476830D01*
X286202Y476720D01*
X286285Y476590D01*
X286387Y476442D01*
X286516Y476285D01*
X286664Y476146D01*
X286840Y476017D01*
X286849D01*
X286868Y476008D01*
X286895Y475989D01*
X286932Y475971D01*
X286978Y475952D01*
X287034Y475924D01*
X287163Y475869D01*
X287330Y475813D01*
X287515Y475767D01*
X287718Y475730D01*
X287931Y475721D01*
X287995D01*
X288051Y475730D01*
X288116D01*
X288180Y475740D01*
X288347Y475776D01*
X288541Y475823D01*
X288735Y475897D01*
X288939Y475998D01*
X289040Y476054D01*
X289133Y476128D01*
X289142Y476137D01*
X289151Y476146D01*
X289179Y476174D01*
X289216Y476202D01*
X289253Y476248D01*
X289299Y476303D01*
X289355Y476359D01*
X289401Y476433D01*
X289456Y476516D01*
X289521Y476609D01*
X289576Y476701D01*
X289632Y476812D01*
X289678Y476932D01*
X289724Y477062D01*
X289771Y477200D01*
X289808Y477348D01*
X290658Y477136D01*
Y477126D01*
X290649Y477089D01*
X290630Y477034D01*
X290603Y476960D01*
X290575Y476877D01*
X290538Y476775D01*
X290492Y476664D01*
X290436Y476544D01*
X290307Y476285D01*
X290140Y476026D01*
X290039Y475897D01*
X289937Y475767D01*
X289826Y475656D01*
X289697Y475545D01*
X289687Y475536D01*
X289669Y475518D01*
X289623Y475499D01*
X289576Y475462D01*
X289503Y475416D01*
X289429Y475370D01*
X289327Y475323D01*
X289225Y475277D01*
X289105Y475222D01*
X288976Y475176D01*
X288837Y475129D01*
X288689Y475083D01*
X288532Y475046D01*
X288365Y475028D01*
X288190Y475009D01*
X288005Y475000D01*
X287903D01*
X287829Y475009D01*
X287746D01*
X287644Y475018D01*
X287533Y475037D01*
X287404Y475055D01*
X287136Y475102D01*
X286858Y475176D01*
X286581Y475277D01*
X286451Y475342D01*
X286322Y475416D01*
X286313Y475425D01*
X286294Y475434D01*
X286257Y475462D01*
X286220Y475499D01*
X286165Y475536D01*
X286100Y475592D01*
X286026Y475656D01*
X285952Y475730D01*
X285878Y475813D01*
X285795Y475897D01*
X285629Y476109D01*
X285471Y476359D01*
X285333Y476636D01*
Y476646D01*
X285314Y476673D01*
X285305Y476720D01*
X285277Y476775D01*
X285259Y476849D01*
X285231Y476941D01*
X285194Y477043D01*
X285166Y477154D01*
X285139Y477274D01*
X285102Y477413D01*
X285055Y477700D01*
X285018Y478023D01*
X285000Y478356D01*
Y478365D01*
Y478402D01*
Y478458D01*
X285009Y478522D01*
Y478615D01*
X285018Y478707D01*
X285028Y478828D01*
X285046Y478948D01*
X285092Y479216D01*
X285157Y479512D01*
X285250Y479808D01*
X285379Y480094D01*
X285388Y480103D01*
X285397Y480131D01*
X285416Y480168D01*
X285453Y480214D01*
X285490Y480279D01*
X285536Y480353D01*
X285656Y480519D01*
X285814Y480704D01*
X285998Y480889D01*
X286211Y481074D01*
X286461Y481231D01*
X286470Y481241D01*
X286498Y481250D01*
X286535Y481268D01*
X286581Y481296D01*
X286655Y481324D01*
X286729Y481352D01*
X286821Y481389D01*
X286923Y481426D01*
X287034Y481463D01*
X287154Y481499D01*
X287413Y481555D01*
X287709Y481601D01*
X288014Y481620D01*
X288106D01*
X288171Y481610D01*
D02*
G37*
G36*
X294338Y475111D02*
X293552D01*
Y480113D01*
X293543Y480103D01*
X293497Y480066D01*
X293441Y480011D01*
X293349Y479946D01*
X293247Y479863D01*
X293118Y479771D01*
X292970Y479669D01*
X292803Y479567D01*
X292794D01*
X292785Y479558D01*
X292729Y479521D01*
X292637Y479475D01*
X292526Y479419D01*
X292396Y479355D01*
X292258Y479290D01*
X292119Y479225D01*
X291980Y479170D01*
Y479928D01*
X291990D01*
X292008Y479946D01*
X292045Y479955D01*
X292091Y479983D01*
X292147Y480011D01*
X292211Y480048D01*
X292369Y480140D01*
X292554Y480242D01*
X292738Y480372D01*
X292933Y480519D01*
X293127Y480677D01*
X293136Y480686D01*
X293145Y480695D01*
X293173Y480723D01*
X293210Y480751D01*
X293293Y480843D01*
X293404Y480954D01*
X293515Y481083D01*
X293635Y481231D01*
X293737Y481379D01*
X293829Y481536D01*
X294338D01*
Y475111D01*
D02*
G37*
D10*
X175800Y63400D02*
X204200D01*
Y121200D01*
X175800D02*
X204200D01*
X175800Y63400D02*
Y121200D01*
X363000Y84000D02*
Y126000D01*
Y84000D02*
X427000D01*
Y126000D01*
X363000D02*
X427000D01*
X253000Y454000D02*
Y496000D01*
Y454000D02*
X317000D01*
Y496000D01*
X253000D02*
X317000D01*
M02*
