G04*
G04 #@! TF.GenerationSoftware,Altium Limited,Altium Designer,22.7.1 (60)*
G04*
G04 Layer_Color=2752767*
%FSLAX44Y44*%
%MOMM*%
G71*
G04*
G04 #@! TF.SameCoordinates,29AA5E4F-6587-4ACD-81CD-572689CA6415*
G04*
G04*
G04 #@! TF.FilePolarity,Positive*
G04*
G01*
G75*
%ADD41C,0.0508*%
%ADD42C,0.0677*%
D41*
X191900Y351068D02*
X192916Y352084D01*
X193932D01*
X192916Y353100D01*
X193932Y354116D01*
X192916D01*
X191900Y355132D01*
X190884Y354116D01*
X189868D01*
X190884Y353100D01*
X189868Y352084D01*
X190884D01*
X191900Y351068D01*
Y325668D02*
X192916Y326684D01*
X193932D01*
X192916Y327700D01*
X193932Y328716D01*
X192916D01*
X191900Y329732D01*
X190884Y328716D01*
X189868D01*
X190884Y327700D01*
X189868Y326684D01*
X190884D01*
X191900Y325668D01*
Y300268D02*
X192916Y301284D01*
X193932D01*
X192916Y302300D01*
X193932Y303316D01*
X192916D01*
X191900Y304332D01*
X190884Y303316D01*
X189868D01*
X190884Y302300D01*
X189868Y301284D01*
X190884D01*
X191900Y300268D01*
Y274868D02*
X192916Y275884D01*
X193932D01*
X192916Y276900D01*
X193932Y277916D01*
X192916D01*
X191900Y278932D01*
X190884Y277916D01*
X189868D01*
X190884Y276900D01*
X189868Y275884D01*
X190884D01*
X191900Y274868D01*
X268100Y351068D02*
X269116Y352084D01*
X270132D01*
X269116Y353100D01*
X270132Y354116D01*
X269116D01*
X268100Y355132D01*
X267084Y354116D01*
X266068D01*
X267084Y353100D01*
X266068Y352084D01*
X267084D01*
X268100Y351068D01*
Y325668D02*
X269116Y326684D01*
X270132D01*
X269116Y327700D01*
X270132Y328716D01*
X269116D01*
X268100Y329732D01*
X267084Y328716D01*
X266068D01*
X267084Y327700D01*
X266068Y326684D01*
X267084D01*
X268100Y325668D01*
Y300268D02*
X269116Y301284D01*
X270132D01*
X269116Y302300D01*
X270132Y303316D01*
X269116D01*
X268100Y304332D01*
X267084Y303316D01*
X266068D01*
X267084Y302300D01*
X266068Y301284D01*
X267084D01*
X268100Y300268D01*
Y274868D02*
X269116Y275884D01*
X270132D01*
X269116Y276900D01*
X270132Y277916D01*
X269116D01*
X268100Y278932D01*
X267084Y277916D01*
X266068D01*
X267084Y276900D01*
X266068Y275884D01*
X267084D01*
X268100Y274868D01*
X75400Y492968D02*
X73368Y497032D01*
X77432D01*
X75400Y492968D01*
X50000D02*
X47968Y497032D01*
X52032D01*
X50000Y492968D01*
X287968Y17968D02*
Y22032D01*
X292032D01*
Y17968D01*
X287968D01*
X512968Y557968D02*
Y562032D01*
X517032D01*
Y557968D01*
X512968D01*
X513984Y558984D02*
Y561016D01*
X516016D01*
Y558984D01*
X513984D01*
X57968Y557968D02*
Y562032D01*
X62032D01*
Y557968D01*
X57968D01*
X58984Y558984D02*
Y561016D01*
X61016D01*
Y558984D01*
X58984D01*
X47300Y392968D02*
X45268Y397032D01*
X49332D01*
X47300Y392968D01*
X72700D02*
X70668Y397032D01*
X74732D01*
X72700Y392968D01*
X418100Y224068D02*
X419116Y225084D01*
X420132D01*
X419116Y226100D01*
X420132Y227116D01*
X419116D01*
X418100Y228132D01*
X417084Y227116D01*
X416068D01*
X417084Y226100D01*
X416068Y225084D01*
X417084D01*
X418100Y224068D01*
Y249468D02*
X419116Y250484D01*
X420132D01*
X419116Y251500D01*
X420132Y252516D01*
X419116D01*
X418100Y253532D01*
X417084Y252516D01*
X416068D01*
X417084Y251500D01*
X416068Y250484D01*
X417084D01*
X418100Y249468D01*
Y274868D02*
X419116Y275884D01*
X420132D01*
X419116Y276900D01*
X420132Y277916D01*
X419116D01*
X418100Y278932D01*
X417084Y277916D01*
X416068D01*
X417084Y276900D01*
X416068Y275884D01*
X417084D01*
X418100Y274868D01*
Y300268D02*
X419116Y301284D01*
X420132D01*
X419116Y302300D01*
X420132Y303316D01*
X419116D01*
X418100Y304332D01*
X417084Y303316D01*
X416068D01*
X417084Y302300D01*
X416068Y301284D01*
X417084D01*
X418100Y300268D01*
Y325668D02*
X419116Y326684D01*
X420132D01*
X419116Y327700D01*
X420132Y328716D01*
X419116D01*
X418100Y329732D01*
X417084Y328716D01*
X416068D01*
X417084Y327700D01*
X416068Y326684D01*
X417084D01*
X418100Y325668D01*
Y351068D02*
X419116Y352084D01*
X420132D01*
X419116Y353100D01*
X420132Y354116D01*
X419116D01*
X418100Y355132D01*
X417084Y354116D01*
X416068D01*
X417084Y353100D01*
X416068Y352084D01*
X417084D01*
X418100Y351068D01*
Y376468D02*
X419116Y377484D01*
X420132D01*
X419116Y378500D01*
X420132Y379516D01*
X419116D01*
X418100Y380532D01*
X417084Y379516D01*
X416068D01*
X417084Y378500D01*
X416068Y377484D01*
X417084D01*
X418100Y376468D01*
Y401868D02*
X419116Y402884D01*
X420132D01*
X419116Y403900D01*
X420132Y404916D01*
X419116D01*
X418100Y405932D01*
X417084Y404916D01*
X416068D01*
X417084Y403900D01*
X416068Y402884D01*
X417084D01*
X418100Y401868D01*
X341900Y224068D02*
X342916Y225084D01*
X343932D01*
X342916Y226100D01*
X343932Y227116D01*
X342916D01*
X341900Y228132D01*
X340884Y227116D01*
X339868D01*
X340884Y226100D01*
X339868Y225084D01*
X340884D01*
X341900Y224068D01*
Y249468D02*
X342916Y250484D01*
X343932D01*
X342916Y251500D01*
X343932Y252516D01*
X342916D01*
X341900Y253532D01*
X340884Y252516D01*
X339868D01*
X340884Y251500D01*
X339868Y250484D01*
X340884D01*
X341900Y249468D01*
Y274868D02*
X342916Y275884D01*
X343932D01*
X342916Y276900D01*
X343932Y277916D01*
X342916D01*
X341900Y278932D01*
X340884Y277916D01*
X339868D01*
X340884Y276900D01*
X339868Y275884D01*
X340884D01*
X341900Y274868D01*
Y300268D02*
X342916Y301284D01*
X343932D01*
X342916Y302300D01*
X343932Y303316D01*
X342916D01*
X341900Y304332D01*
X340884Y303316D01*
X339868D01*
X340884Y302300D01*
X339868Y301284D01*
X340884D01*
X341900Y300268D01*
Y325668D02*
X342916Y326684D01*
X343932D01*
X342916Y327700D01*
X343932Y328716D01*
X342916D01*
X341900Y329732D01*
X340884Y328716D01*
X339868D01*
X340884Y327700D01*
X339868Y326684D01*
X340884D01*
X341900Y325668D01*
Y351068D02*
X342916Y352084D01*
X343932D01*
X342916Y353100D01*
X343932Y354116D01*
X342916D01*
X341900Y355132D01*
X340884Y354116D01*
X339868D01*
X340884Y353100D01*
X339868Y352084D01*
X340884D01*
X341900Y351068D01*
Y376468D02*
X342916Y377484D01*
X343932D01*
X342916Y378500D01*
X343932Y379516D01*
X342916D01*
X341900Y380532D01*
X340884Y379516D01*
X339868D01*
X340884Y378500D01*
X339868Y377484D01*
X340884D01*
X341900Y376468D01*
Y401868D02*
X342916Y402884D01*
X343932D01*
X342916Y403900D01*
X343932Y404916D01*
X342916D01*
X341900Y405932D01*
X340884Y404916D01*
X339868D01*
X340884Y403900D01*
X339868Y402884D01*
X340884D01*
X341900Y401868D01*
X530000Y182968D02*
X527968Y187032D01*
X532032D01*
X530000Y182968D01*
X504600D02*
X502568Y187032D01*
X506632D01*
X504600Y182968D01*
X530000Y292968D02*
X527968Y297032D01*
X532032D01*
X530000Y292968D01*
X504600D02*
X502568Y297032D01*
X506632D01*
X504600Y292968D01*
X530000Y392968D02*
X527968Y397032D01*
X532032D01*
X530000Y392968D01*
X504600D02*
X502568Y397032D01*
X506632D01*
X504600Y392968D01*
X530000Y492968D02*
X527968Y497032D01*
X532032D01*
X530000Y492968D01*
X504600D02*
X502568Y497032D01*
X506632D01*
X504600Y492968D01*
X187968Y102968D02*
X188984Y105000D01*
X187968Y107032D01*
X190000Y106016D01*
X192032Y107032D01*
X191016Y105000D01*
X192032Y102968D01*
X190000Y103984D01*
X187968Y102968D01*
Y77568D02*
X188984Y79600D01*
X187968Y81632D01*
X190000Y80616D01*
X192032Y81632D01*
X191016Y79600D01*
X192032Y77568D01*
X190000Y78584D01*
X187968Y77568D01*
X418984Y103984D02*
Y102968D01*
X421016D01*
Y103984D01*
X422032D01*
Y106016D01*
X421016D01*
Y107032D01*
X418984D01*
Y106016D01*
X417968D01*
Y103984D01*
X418984D01*
X368984D02*
Y102968D01*
X371016D01*
Y103984D01*
X372032D01*
Y106016D01*
X371016D01*
Y107032D01*
X368984D01*
Y106016D01*
X367968D01*
Y103984D01*
X368984D01*
X308984Y473984D02*
Y472968D01*
X311016D01*
Y473984D01*
X312032D01*
Y476016D01*
X311016D01*
Y477032D01*
X308984D01*
Y476016D01*
X307968D01*
Y473984D01*
X308984D01*
X258984D02*
Y472968D01*
X261016D01*
Y473984D01*
X262032D01*
Y476016D01*
X261016D01*
Y477032D01*
X258984D01*
Y476016D01*
X257968D01*
Y473984D01*
X258984D01*
X530000Y82968D02*
X527968Y87032D01*
X532032D01*
X530000Y82968D01*
X504600D02*
X502568Y87032D01*
X506632D01*
X504600Y82968D01*
X75400D02*
X73368Y87032D01*
X77432D01*
X75400Y82968D01*
X50000D02*
X47968Y87032D01*
X52032D01*
X50000Y82968D01*
X75400Y182968D02*
X73368Y187032D01*
X77432D01*
X75400Y182968D01*
X50000D02*
X47968Y187032D01*
X52032D01*
X50000Y182968D01*
X75400Y282968D02*
X73368Y287032D01*
X77432D01*
X75400Y282968D01*
X50000D02*
X47968Y287032D01*
X52032D01*
X50000Y282968D01*
X237968Y122968D02*
X238984D01*
X240000Y123984D01*
X241016Y122968D01*
X242032D01*
Y123984D01*
X241016Y125000D01*
X242032Y126016D01*
Y127032D01*
X241016D01*
X240000Y126016D01*
X238984Y127032D01*
X237968D01*
Y126016D01*
X238984Y125000D01*
X237968Y123984D01*
Y122968D01*
X207968D02*
X208984D01*
X210000Y123984D01*
X211016Y122968D01*
X212032D01*
Y123984D01*
X211016Y125000D01*
X212032Y126016D01*
Y127032D01*
X211016D01*
X210000Y126016D01*
X208984Y127032D01*
X207968D01*
Y126016D01*
X208984Y125000D01*
X207968Y123984D01*
Y122968D01*
X295388Y196548D02*
X297420Y198580D01*
X299452Y196548D01*
X297420Y194516D01*
X295388Y196548D01*
D42*
X192032Y426000D02*
G03*
X192032Y426000I-2032J0D01*
G01*
X262032Y164000D02*
G03*
X262032Y164000I-2032J0D01*
G01*
Y66000D02*
G03*
X262032Y66000I-2032J0D01*
G01*
X322032Y70000D02*
G03*
X322032Y70000I-2032J0D01*
G01*
Y160000D02*
G03*
X322032Y160000I-2032J0D01*
G01*
M02*
