M48
;Layer_Color=9474304
;FILE_FORMAT=4:4
METRIC,LZ
;TYPE=PLATED
T1F00S00C0.4000
T2F00S00C0.5000
T3F00S00C0.7000
T4F00S00C0.8500
T5F00S00C0.9000
T6F00S00C1.0000
T7F00S00C1.0200
;TYPE=NON_PLATED
T8F00S00C1.8000
T9F00S00C2.0000
%
T01
X0029742Y00196548
T02
X0021Y00125
X0024
T03
X0037Y00105
X0042
X0031Y00475
X0026
T04
X0026Y00066
X0032Y0007
Y0016
X0026Y00164
X0019Y00426
T05
X001919Y002769
X002681
X003419
Y002515
Y002261
X004181
Y002515
Y002769
Y003023
Y003277
Y003531
Y003785
Y004039
X003419
Y003785
Y003531
Y003277
Y003023
X002681
Y003277
Y003531
X001919
Y003277
Y003023
T06
X005046Y00085
X0053
Y00185
X005046
X000754
X0005
Y00285
X000754
Y00085
X0005
X000473Y00395
X000727
X000754Y00495
X0005
X005046
X0053
Y00395
X005046
Y00295
X0053
T07
X0019Y000796
Y00105
T08
X0029Y0002
T09
X0006Y0056
X00515
M30
